<svg width="164" height="33" viewBox="0 0 164 33" fill="none" xmlns="http://www.w3.org/2000/svg">
<path d="M3.3146 19.1488L10.1917 7.31517L13.971 13.7586H18.6176C18.6176 13.7586 13.6612 5.02281 12.9178 4.0315C12.9178 4.0315 10.8732 0.871741 6.84604 2.85433C2.81891 4.83693 4.92541 9.73145 4.92541 9.73145C3.12998 9.88575 2.10378 10.1851 1.02219 11.5282C-2.13752 16.8564 3.3146 19.1488 3.3146 19.1488Z" fill="white"/>
<path d="M22.5455 21.1876L8.8588 21.1486L12.5493 14.6539L10.226 10.6298C10.226 10.6298 5.13883 19.2901 4.65204 20.4296C4.65204 20.4296 2.93791 23.7801 6.66845 26.2764C10.399 28.7728 13.5845 24.5012 13.5845 24.5012C14.6158 25.979 15.3882 26.718 17.0921 26.9832C23.2863 27.0554 22.5455 21.1876 22.5455 21.1876Z" fill="white"/>
<path d="M14.5596 3.33848L21.3692 15.211L13.8994 15.2623L11.5761 19.2864C11.5761 19.2864 21.6197 19.3619 22.8499 19.2137C22.8499 19.2137 26.6086 19.0229 26.9052 14.544C27.2018 10.0651 21.9098 9.44215 21.9098 9.44215C22.6739 7.8101 22.9277 6.77173 22.3054 5.16349C19.2709 -0.237011 14.5596 3.33848 14.5596 3.33848Z" fill="white"/>
<path d="M127.571 5.29712H123.68C123.68 5.29712 123.551 14.722 123.68 18.0484C123.81 21.3748 125.885 22.8994 127.571 23.4538C129.257 24.0082 131.332 23.731 131.332 23.731L131.203 19.9888C129.423 20.0212 127.571 19.1572 127.571 18.0484V13.336H131.203V9.31654H127.571V5.29712Z" fill="white"/>
<path d="M71.0183 10.6562H67.573V23.9721H71.0183V10.6562Z" fill="white"/>
<path d="M89.5774 10.6562H86.1321V23.9721H89.5774V10.6562Z" fill="white"/>
<path d="M77.1935 5.29712H73.5957V23.9716H77.1935V5.29712Z" fill="white"/>
<path d="M83.5327 5.29712H79.9348V23.9716H83.5327V5.29712Z" fill="white"/>
<path d="M60.8335 23.8561H57.133C57.133 23.8561 57.0054 20.666 57.0054 16.3275C57.0054 11.989 61.8543 10.8405 62.7475 10.713C63.6407 10.5854 64.9168 10.713 64.9168 10.713V14.4135C64.0696 14.4135 63.7684 14.4135 62.7475 14.4844C61.7267 14.5553 60.9611 15.4343 60.8335 16.3275C60.7059 17.2207 60.8335 23.8561 60.8335 23.8561Z" fill="white"/>
<path d="M39.1592 5.3291C39.1592 5.3291 48.4746 5.20086 49.623 5.45605C50.7712 5.71121 51.5772 6.04182 52.4297 6.9873C53.4646 8.13526 53.834 9.14287 53.834 10.6885C53.8338 12.6944 52.3083 14.2239 52.3027 14.2295C52.3359 14.2529 54.2171 15.5911 54.3438 18.0889C54.4714 20.609 52.3024 22.3958 52.1748 22.5234C52.0472 22.651 51.2817 23.3675 49.623 23.7197C47.9642 24.0719 39.1592 23.9268 39.1592 23.9268V5.3291ZM43.2422 16.2705V20.0986H48.8076C49.3376 20.0982 50.1633 19.066 50.1318 18.1143C50.1018 17.2069 49.3376 16.2709 48.8076 16.2705H43.2422ZM43.2422 12.6973H48.3955C48.8862 12.6966 49.6512 11.6645 49.6221 10.7129C49.5942 9.80562 48.8862 8.86972 48.3955 8.86914H43.2422V12.6973Z" fill="white"/>
<ellipse cx="69.2386" cy="7.08357" rx="1.78645" ry="1.78645" fill="white"/>
<ellipse cx="87.7029" cy="7.08357" rx="1.78645" ry="1.78645" fill="white"/>
<path d="M97.8506 10.7124C98.6161 10.5853 105.589 10.7116 105.634 10.7124V23.9839C102.644 23.9839 98.8706 24.1115 97.9775 23.9839C97.0839 23.8562 92.3631 22.8348 92.2353 17.4761C92.1076 12.1167 97.0849 10.84 97.8506 10.7124ZM101.684 14.3101C101.684 14.3101 98.7483 14.1277 98.1103 14.3101C97.4723 14.4924 95.9408 15.331 96.0683 17.3726C96.1959 19.4142 97.5999 20.0526 98.1103 20.1802C98.6208 20.3078 100.288 20.1802 101.684 20.1802V14.3101Z" fill="white"/>
<path d="M108.29 10.7194V23.927H112.011C112.011 23.927 111.883 15.7694 112.011 15.1219C112.14 14.4745 113.166 13.9566 114.578 14.086C115.989 14.2155 117.4 15.2514 117.4 16.4168V23.927H120.993C120.993 23.927 121.122 16.6126 120.993 15.6399C120.865 14.6671 120.012 10.8615 115.732 10.7194C111.453 10.5773 108.29 10.7194 108.29 10.7194Z" fill="white"/>
<path d="M164 5.55176H159.406V23.9267H164V5.55176Z" fill="white"/>
<path d="M149.732 5.55176L156.75 23.9268H151.774L150.88 21.1191H143.224L142.204 23.9268H137.482L144.755 5.55176H149.732ZM144.842 16.6533H149.262L147.052 10.9111L144.842 16.6533Z" fill="white"/>
</svg>
