<svg width="173" height="61" viewBox="0 0 173 61" fill="none" xmlns="http://www.w3.org/2000/svg">
<g clip-path="url(#clip0_1253_10176)">
<path d="M19.101 27.1806C19.43 26.3515 19.7108 25.5301 20.0455 24.9511C20.4976 24.172 21.0478 24.1682 21.9346 24.4163V21.9252C21.1247 21.9252 20.6823 22.2522 20.0455 23.1294C19.7089 23.593 18.9125 24.4606 18.1411 25.2916C18.5643 25.8879 18.8817 26.515 19.0991 27.1806M19.3146 45.5898C18.145 45.0858 16.8966 44.3548 16.8966 43.5642C16.8966 42.1599 18.6682 41.0154 18.6682 38.6647C18.6682 36.1409 15.9636 35.1848 13.2378 36.7333C13.7168 37.5432 14.0496 38.6935 14.0496 39.4072C14.0496 39.8996 13.9572 40.369 13.8091 40.8211C14.7883 40.9423 15.5442 41.4847 15.5442 42.0195C15.5442 42.8101 14.9614 43.3449 14.6671 44.2528C15.9828 44.7972 17.2486 45.6263 19.0049 47.3133C20.2167 46.9825 20.0956 47.9539 20.2071 48.631H22.4174C22.3289 46.7209 20.8169 46.2419 19.3146 45.5917M13.711 45.2108C13.1762 44.8511 12.5838 44.6145 11.8624 44.449C11.4834 45.1723 11.2045 45.911 11.1699 46.7228C12.6049 46.6689 13.7707 46.5939 14.7671 46.6708C14.3266 46.2592 13.5975 45.8033 12.7127 45.6917C13.0531 45.4878 13.3821 45.3301 13.711 45.2127M49.8196 28.9946C49.9446 27.8712 50.3716 26.9632 50.8179 26.2976L49.077 25.2185C48.7212 24.9992 48.6442 24.7241 48.6442 24.3567C48.6442 23.9585 48.7693 23.4968 48.7693 23.0794C48.7693 22.2849 48.0594 21.9271 47.2265 21.9271V26.1687C47.9152 27.1171 48.8308 28.0751 49.8196 28.9926M4.97387 26.5458C4.28713 26.9613 2.63281 27.0248 0.96117 26.7824C1.28819 27.5903 1.70754 28.304 2.21923 28.8868C3.68311 28.8868 5.05274 28.6002 5.92415 28.1809C6.14344 28.0751 6.3435 28.2424 6.10497 28.479C5.61059 28.9696 4.34292 29.3581 2.91943 29.5486C3.69465 30.1507 4.64108 30.4988 5.76256 30.4988C8.77112 30.4988 9.17894 28.0154 8.5576 26.565C8.08054 25.4531 7.3284 23.4429 7.3284 21.552C7.3284 20.4632 7.56308 19.4572 7.91126 18.6646C6.30503 16.9468 5.02581 13.819 4.44102 10.8605C3.56962 11.3164 2.81555 12.0935 2.18652 13.0823C2.67513 15.0136 3.81584 17.395 4.96618 18.7108C5.21048 18.9897 5.10853 19.3418 4.62954 18.9974C3.66388 18.3088 2.34426 16.0774 1.59405 14.1595C1.13814 15.1098 0.778424 16.1851 0.520657 17.3219C1.50941 19.3052 3.14642 21.0923 4.43141 21.7829C4.64685 21.9002 4.56991 22.1349 4.30445 22.1233C3.3157 22.0733 1.48247 20.3709 0.285974 18.555C0.0974577 19.7611 0.022436 21.0076 0.0686032 22.2176C1.50171 23.2929 3.11564 24.02 4.26982 24.1912C4.5122 24.2278 4.60069 24.4452 4.26982 24.5067C3.43112 24.6625 1.69792 24.0912 0.137854 23.2121C0.230188 24.1701 0.405239 25.0915 0.66493 25.9398C2.24616 26.3573 3.837 26.4304 4.88154 26.2034C5.12007 26.1514 5.26049 26.3746 4.97579 26.5477M55.2827 38.657C54.5998 37.7471 53.5553 37.1758 52.3087 37.1758C50.8256 37.1758 49.3656 38.1588 49.3656 40.4883C49.3656 42.3465 50.8025 43.4122 50.8025 44.7491C50.8025 45.6321 50.1043 47.0229 49.3502 47.0229C48.8231 47.0229 48.55 46.6939 47.8786 46.6939C47.0668 46.6939 46.4782 47.1248 46.1377 48.6291H50.993C51.345 47.3768 52.4876 45.1819 54.1978 44.0451C53.6938 43.0082 53.1359 40.0535 55.2827 38.657ZM41.169 8.6175L40.4861 8.5444L40.3745 1.3173C40.3745 1.10571 40.286 0.92296 40.1745 0.834473C40.0629 0.92296 39.9744 1.10571 39.9744 1.3173L39.8609 8.5444L39.1799 8.6175V8.97722H41.1671V8.6175H41.169ZM35.6578 3.13899C35.6174 2.5215 35.3461 1.87901 34.5805 2.07137C33.8149 1.87901 33.5437 2.5215 33.5033 3.13899C33.7688 3.06397 34.1535 3.01587 34.5805 3.01587C35.0076 3.01587 35.3923 3.06397 35.6578 3.13899ZM33.3533 5.39156C33.4744 5.88209 33.8726 6.45726 34.5805 6.45726C35.2884 6.45726 35.6866 5.88017 35.8078 5.38964C35.4096 5.30115 35.1922 5.07801 35.1191 4.74137C35.3904 4.74137 35.6578 4.72791 35.9117 4.68559C35.7212 4.43552 35.6578 4.04117 35.6578 3.63336C35.3923 3.70838 35.0076 3.75647 34.5825 3.75647C34.1573 3.75647 33.7726 3.70838 33.5071 3.63336C33.5071 4.04117 33.4437 4.43552 33.2513 4.68559C33.5052 4.72599 33.7745 4.73945 34.0458 4.74137C33.9707 5.07801 33.7534 5.305 33.3552 5.39156" fill="#004E72"/>
<path d="M27.8921 7.66336H28.1171C28.3595 7.66336 28.5403 7.33442 28.6942 6.97662C29.5041 6.98432 30.1735 7.33249 30.6813 7.35558C31.5277 7.35558 32.1991 6.73617 32.6415 6.5919C32.6915 6.81311 32.6781 7.03241 32.6781 7.3902C32.6781 8.20967 33.3475 8.75983 33.4918 9.5466C33.2571 9.72357 32.5761 9.94479 32.1029 11.7242C31.0853 15.5387 28.8308 19.5457 27.3073 20.5633H32.3626C33.8438 20.5633 35.8963 20.0458 37.2467 17.7201C37.4544 18.8185 37.7084 20.0073 37.9007 20.5633H41.8538C40.8708 19.9188 39.3858 17.6643 38.2412 15.0501C38.4701 13.9748 38.624 12.5071 38.6317 11.2259C38.6317 10.8335 38.6202 10.4642 38.5971 10.1141C39.0376 10.2487 39.532 10.3526 39.9609 10.3815C39.8378 10.4565 39.7551 10.5911 39.7551 10.7469C39.7551 10.9855 39.9475 11.1778 40.186 11.1778C40.4245 11.1778 40.6169 10.9855 40.6169 10.7469C40.6169 10.5777 40.5188 10.4334 40.3784 10.3622C40.8016 10.2372 40.7439 9.68895 40.6958 9.4331C40.5477 9.39463 40.0225 9.37347 39.8378 9.44849C39.6859 9.51005 39.6282 9.62931 39.4916 9.64278C39.1319 9.64278 38.7567 9.34654 38.4701 8.93104C38.1239 6.74771 37.2525 5.632 36.1252 5.43964C35.7328 6.81696 35.0884 7.52486 34.5825 7.52486C34.0765 7.52486 33.4302 6.81696 33.0397 5.43579C32.3414 5.52813 31.9798 5.7782 30.9218 6.52264C30.3043 6.44762 29.4444 6.37645 28.7596 6.38414C28.423 6.38414 27.7228 6.89198 27.5881 7.09781V7.30941C27.5881 7.53255 27.6324 7.65951 27.894 7.65951M36.2753 8.19813C36.9312 8.65596 37.3737 10.6065 37.1621 12.0935C37.1255 11.9685 37.0928 11.8434 37.0582 11.7184C36.583 9.93902 35.904 9.7178 35.6693 9.54083C35.7617 9.04068 36.0637 8.63479 36.2753 8.19813ZM23.2003 38.5608C23.2003 44.1643 29.5618 47.9654 34.5805 50.849C39.5993 47.9654 45.9608 44.1643 45.9608 38.5608V21.929H23.2003V38.5608ZM43.9948 23.895V34.4615H35.3596L35.1345 25.0203L34.8941 23.8969H43.9948V23.895ZM25.1682 23.895H34.267L34.0285 25.0184L33.8034 34.4596H25.1682V23.8931V23.895ZM25.1682 37.5105H33.7303L33.6053 42.7678L31.5239 42.9967L31.3873 43.6776L33.5802 43.8854H35.5808L37.7738 43.6776L37.6372 42.9967L35.5577 42.7678L35.4308 37.5105H43.9929V38.5608C43.9929 40.4709 42.958 42.3388 40.8304 44.2682C39.2261 45.7225 37.2679 46.9901 35.1807 48.2232V45.1858L35.7405 44.9838V44.5394H33.4148V44.9838L33.9746 45.1858V48.2232C31.8894 46.9901 29.9311 45.7225 28.3268 44.2682C26.1993 42.3388 25.1643 40.4729 25.1643 38.5608V37.5105H25.1682Z" fill="#004E72"/>
<path d="M29.8599 27.773C29.8599 28.2116 30.1908 28.4098 30.6505 28.4098C31.1622 28.4098 31.6046 28.2866 32.0971 28.2866C32.4376 28.2866 32.5857 28.4021 32.5857 28.581C32.5857 28.806 32.1971 28.8887 31.8585 28.8887C31.52 28.8887 31.3449 28.8407 30.9256 28.8407C30.6697 28.8407 30.31 28.9099 29.831 29.0407C29.302 29.1888 29.279 28.7195 29.279 28.0039C29.279 27.1806 28.8904 26.8074 28.2094 26.8074C28.0459 26.8074 27.8978 26.8382 27.767 26.8901C27.5785 27.144 27.4265 27.1748 27.2341 27.2671C27.1726 27.2979 27.2457 27.4576 27.2457 27.4576C26.9918 27.546 26.8532 27.7288 26.8532 27.7288C26.8398 27.9673 26.9514 28.0347 27.0956 28.0693C27.1322 28.0039 27.1764 27.95 27.2707 27.9212C27.3822 27.8865 27.5208 27.8942 27.5554 28.0058C27.5881 28.1058 27.5208 28.2155 27.4169 28.2597C27.3072 28.3059 27.1899 28.3078 27.1245 28.2616C27.0495 28.5117 27.2918 28.7714 27.2918 28.7714C27.4534 28.504 27.8247 28.4559 27.8247 28.6925C27.8247 28.9426 27.6131 29.1292 27.6285 29.4447C26.9129 29.3504 26.3089 29.1234 26.3089 28.9407C26.3089 28.8407 26.3781 28.6771 26.3781 28.5406C26.3781 28.2482 26.1415 28.0943 25.9491 28.2251V29.3504C26.3723 29.4428 26.9283 29.814 27.1514 30.3449C27.5477 30.1737 27.7727 30.3219 27.7727 30.545C27.7727 30.8085 27.3726 31.4164 27.1514 31.4164C27.0514 31.4164 26.8744 31.3395 26.7436 31.3395C26.5435 31.3395 26.4031 31.5376 26.4454 31.7742H27.5727C28.3479 30.8566 29.1404 30.4911 29.8984 30.2353C29.7406 30.7931 30.2773 30.9701 30.7371 31.0067C30.5447 31.174 30.3908 31.4741 30.3139 31.4741C30.2138 31.4741 30.1061 31.4049 29.9984 31.4049C29.8099 31.4049 29.6868 31.5761 29.681 31.755H30.7409C30.8082 31.5357 31.0814 31.1221 31.2968 30.999C31.0468 30.8124 30.8736 30.3411 31.2237 30.0968C31.3103 30.5258 31.8893 30.6777 32.3471 30.6681C32.4606 30.8643 32.6434 31.4683 32.4068 31.4683C32.3144 31.4683 32.1817 31.4068 32.0913 31.4068C31.9297 31.4068 31.7547 31.5934 31.7816 31.7646H32.8992L32.9319 30.268C32.326 30.1564 31.7431 29.7909 31.7489 29.2792C32.6742 29.2696 33.0012 28.9541 33.0012 28.5656C33.0012 28.1558 32.5972 27.9404 32.0778 27.9404C31.6316 27.9404 31.1583 28.0712 30.6409 28.0712C30.4485 28.0712 30.2639 27.9635 30.2639 27.7711C30.2639 27.5172 30.5351 27.3287 30.9429 27.3287H31.5969C31.822 27.5499 32.0605 27.5826 32.2856 27.5826C32.6626 27.5826 33.0127 27.3441 33.2089 27.0286H30.8121C30.2908 27.0286 29.8541 27.3325 29.8541 27.7711M37.0043 29.839C37.3313 29.7294 37.4909 29.9044 37.4909 30.1449C37.4909 30.418 37.3717 30.7508 36.9466 30.8989C36.9696 31.0932 36.8658 31.4414 36.6792 31.4414C36.5868 31.4414 36.5214 31.4164 36.4349 31.4164C36.2675 31.4164 36.1213 31.4587 36.0905 31.7646H37.4525C37.1274 31.1259 38.774 30.0083 39.9878 29.9602C39.4665 30.1583 39.103 30.9336 40.2321 31.0067C40.2783 31.2337 40.0898 31.4299 39.8936 31.4299C39.7955 31.4299 39.7185 31.3991 39.6012 31.3991C39.4011 31.3991 39.2645 31.503 39.2415 31.7646H40.3475C40.4206 31.5838 40.613 31.3529 40.7861 31.2683C40.6034 31.1356 40.5091 30.72 40.7496 30.3142C40.9092 30.974 41.444 31.3221 42.0269 31.0124C42.0673 31.2375 41.9596 31.4645 41.8172 31.4645C41.7229 31.4645 41.646 31.4337 41.5017 31.4337C41.3575 31.4337 41.2247 31.5126 41.2247 31.7646H42.3097C42.4424 31.5587 42.4828 31.1529 42.4693 30.747C41.9576 30.7354 41.5344 30.5469 41.6402 29.9679C41.8345 30.0487 42.0134 30.1122 42.2904 30.1122C42.8771 30.1122 43.0426 29.764 43.0426 29.5255C43.0426 28.9522 42.3173 28.6829 42.3173 28.354C42.3173 28.2059 42.5213 28.1212 42.8579 28.1962L42.829 28.5194L43.5639 28.1808C43.3446 27.9346 43.158 27.7769 42.9079 27.6134L42.8829 27.9058C42.4578 27.825 41.9499 27.9308 41.9499 28.3617C41.9499 28.8291 42.6444 29.1446 42.6444 29.4889C42.6444 29.6544 42.4962 29.7467 42.2693 29.7467C41.7845 29.7467 41.2247 29.0272 40.2437 29.0561C40.69 28.8945 40.9958 28.5252 41.192 28.2193C41.5729 27.6307 42.0442 27.4229 42.6444 27.4345C42.0634 27.119 41.4305 26.9997 40.8689 26.9997C39.9359 26.9997 39.2915 27.4075 39.2915 27.8769C39.2915 28.0731 39.3761 28.2866 39.3761 28.479C39.3761 28.7156 39.2626 28.9811 38.9375 28.9811C38.6798 28.9811 38.5643 28.7175 38.5778 28.3444C38.9952 27.9943 39.0472 27.5537 38.9721 27.2633C39.1241 27.119 39.303 26.8593 39.278 26.5842C39.0048 26.9305 38.2142 26.7708 37.9315 26.7708C37.6795 26.7708 37.5237 26.8939 37.5583 27.0536C37.3178 27.1382 37.0793 27.1613 36.8061 27.1305C36.7311 27.2575 36.7927 27.5037 36.9196 27.573C37.1812 27.4441 37.7583 27.3729 37.7583 27.5595C37.7583 27.6807 37.5602 27.7653 36.9793 27.7653C36.9004 27.9115 36.9735 28.1385 37.1389 28.2578C37.2717 27.9923 37.8276 27.8692 37.8276 28.1905C37.8276 28.4598 37.5006 28.5098 37.4582 29.0042C36.708 29.0696 36.2983 28.7945 36.2983 28.4136C36.2983 28.2597 36.3233 28.1751 36.3195 28.0847C36.3118 27.875 36.2617 27.7307 35.9386 27.8288L35.9751 29.3581C36.1925 29.1542 36.5503 29.1042 37.0004 29.8429M12.7857 39.4053C12.7857 38.5165 12.2779 37.3008 11.2699 36.6487C13.2089 35.2752 15.877 34.702 17.2678 32.7572C16.4387 32.4994 15.7289 32.0954 15.2287 31.8127C16.1213 31.9108 18.2027 31.9108 20.0955 30.9316C20.4456 31.2625 21.0189 32.6591 20.8611 33.113C20.7034 33.5651 20.2917 33.7805 19.5261 34.096C19.2126 34.7828 19.5069 36.7064 20.6072 36.7468C21.0016 36.0985 21.4709 35.3329 21.6864 34.6654C21.8018 34.3057 21.9403 33.3093 21.9403 31.678C21.9403 29.6947 21.0785 29.4197 19.8801 29.1446L18.1527 28.756C17.7083 24.7125 13.7475 23.9046 13.2666 21.3923C13.8976 22.0425 15.2037 21.3366 15.8828 21.3366C16.4175 21.3366 16.7599 21.9233 17.2332 21.9233C17.5621 21.9233 17.9314 21.6809 18.1661 21.4289C17.9661 20.9865 17.0793 21.2923 17.0793 20.9018C17.0793 20.7864 17.1928 20.696 17.3466 20.696C17.6525 20.696 18.0545 20.9249 18.397 20.8095C18.5835 20.5786 18.6297 19.8169 17.7352 19.2398L14.3669 17.0661C13.8764 16.7487 13.132 16.5967 12.3433 16.6891C11.7027 16.2543 11.2757 15.8023 10.8717 15.1521C10.5389 15.5753 10.4716 16.5159 10.6601 17.2777C9.52707 17.9894 8.61527 19.3668 8.61527 21.6655C8.61527 24.5317 10.1157 25.959 10.1157 27.7192C10.1157 31.6395 5.74136 32.611 5.74136 36.2293C5.74136 39.8477 9.68096 39.915 8.69606 44.0624C3.34643 43.4468 3.01557 39.2975 5.57977 37.1277C3.58112 37.5162 2.14801 39.4533 2.14801 41.3289C2.14801 44.4029 4.61411 46.6227 8.64605 46.7574C8.79609 48.102 8.58449 49.7159 8.53063 50.2334C9.40204 50.143 9.37126 51.0144 9.28662 52.0416H11.7393C11.7893 49.9352 9.90603 50.6047 9.90603 46.8882C9.90603 43.7161 12.7896 41.6828 12.7896 39.4033M13.7148 18.0818C14.1803 18.0818 14.6016 18.4953 14.8325 19.0263C14.19 18.8243 13.6552 18.732 13.0281 18.7339C13.1243 18.2818 13.4455 18.0818 13.7148 18.0818ZM3.15599 40.4209C3.37337 42.5369 5.02769 44.7549 8.26517 45.3781C5.32393 45.9572 2.42694 43.241 3.15599 40.4209ZM61.7999 33.1381C61.7999 32.4994 62.2808 32.3359 62.8175 32.4744C63.7947 33.946 66.2262 33.6363 66.5244 32.7283C65.5818 32.6514 64.9335 30.9567 63.8351 30.9567C63.562 30.9567 63.2715 31.1009 62.9579 31.4395C61.5306 31.1759 60.5207 31.9743 60.5207 33.0707C60.5207 36.1851 65.703 35.9966 65.703 38.5839C65.703 39.7746 65.1297 40.4613 64.0082 40.4613C61.7153 40.4613 58.7317 35.8965 58.7317 32.6379C58.7317 31.4722 58.8837 30.57 59.1645 29.8583C61.4633 28.1885 64.5719 26.3592 64.5719 22.5254C64.5719 18.1779 60.7823 15.3675 56.4868 16.3947C56.1752 17.2334 55.2038 17.9009 54.3535 18.3992C54.0861 18.555 54.115 18.8551 54.2785 19.2321C53.2975 19.5418 52.4838 19.9881 52.2241 20.1728C52.2241 20.2901 52.2972 20.5132 52.5376 20.6941C52.4491 21.3962 52.8396 21.8656 53.1493 21.9656C53.2878 21.7309 53.5571 21.5097 53.9053 21.3731C54.5055 21.1403 55.1076 21.2519 55.2519 21.6213C55.3961 21.9906 55.0268 22.4811 54.4286 22.7139C54.0669 22.8562 53.7033 22.8716 53.4398 22.7793C53.0878 23.3333 53.6072 24.2451 53.9053 24.3836C54.7344 23.4391 56.4387 23.3333 56.4387 23.9527C56.4387 25.2396 51.2526 24.4355 50.9525 30.0256L49.2886 29.6313C48.1594 29.3639 47.2226 31.0009 47.2226 31.9204C47.2226 32.7399 47.8709 33.2515 48.6172 33.2919C48.8404 32.9053 49.0616 32.4417 49.2674 31.9608L51.8297 33.9075C52.8185 34.6596 54.1785 34.8232 54.9672 33.9191C54.8441 34.5462 54.4305 35.3926 53.7514 35.8581C53.7553 35.8619 53.7591 35.8658 53.763 35.8677C54.8614 36.8103 56.2195 37.5759 57.2871 38.9186C55.854 39.4668 55.0826 40.5921 55.0826 41.7694C55.0826 45.5878 59.8705 46.0226 59.8705 49.0042C59.8705 49.9102 59.7359 50.3219 59.2492 50.3219C58.9568 50.3219 58.7567 50.2122 58.3181 50.2122C57.7141 50.2122 57.1716 50.7508 56.9639 52.0493H62C61.7326 50.7278 61.344 47.423 61.6403 46.3707C59.5204 45.8167 59.1684 42.8813 61.0362 40.7403C63.3331 43.0178 66.9764 41.9925 66.9764 38.6531C66.9764 34.8751 61.7922 35.154 61.7922 33.14M63.7813 31.6934C64.166 31.6934 64.5757 32.1474 65.2471 32.8418C64.5392 32.9745 64.1487 32.2782 63.26 32.0531C63.3927 31.8646 63.5504 31.6934 63.7793 31.6934M62.8252 22.3503C62.8252 24.6144 61.4748 26.2553 59.2588 27.6499C59.1934 27.3575 59.0991 27.0825 58.9876 26.8247C61.0516 25.4647 62.9753 22.8851 61.5556 19.1936C62.4212 20.167 62.8252 21.2558 62.8252 22.3503ZM55.4327 19.0494C55.7636 18.5838 56.2502 18.2741 56.6677 18.2741C56.9774 18.2741 57.389 18.4473 57.5006 19.007C56.8062 18.9224 56.1406 18.9513 55.4327 19.0494ZM57.7064 25.0607C59.305 23.8161 60.3649 22.1176 59.9936 20.2459C61.3806 22.3195 59.784 24.3913 58.272 25.6397C58.0758 25.3954 57.8776 25.2031 57.7083 25.0626M26.2627 12.1185C26.8667 12.1185 27.3572 11.628 27.3572 11.024L26.3781 8.36164H29.6002L28.6211 11.024C28.6211 11.628 29.1116 12.1185 29.7156 12.1185C30.3196 12.1185 30.8102 11.628 30.8102 11.024L29.831 8.36164H30.1677C30.2119 8.27316 30.21 8.07694 30.1677 7.97692H25.8126C25.7664 8.0654 25.7702 8.26354 25.8126 8.36164H26.1492L25.1701 11.024C25.1701 11.628 25.6606 12.1185 26.2646 12.1185M30.4601 11.024H28.9885L29.7233 9.00029L30.4601 11.024ZM26.2723 9.00029L27.0091 11.024H25.5394L26.2723 9.00029ZM75.5616 2.17331H74.3247V58.6724C74.3247 58.6724 74.3247 59.4668 75.1192 59.4668H76.3561V2.96585C76.3561 2.96585 76.3561 2.17139 75.5616 2.17139" fill="#004E72"/>
<path d="M97.9085 15.758H92.8532V28.9926H90.3313V15.758H85.2779V13.3707H97.9085V15.758Z" fill="#004E72"/>
<path d="M101.875 19.5744C102.604 18.5395 103.689 18.024 105.134 18.024C106.407 18.024 107.448 18.4203 108.258 19.2128C109.069 20.0034 109.473 21.0249 109.473 22.2752V28.9926H107.13V23.0447C107.13 22.154 106.913 21.4635 106.478 20.9748C106.042 20.4882 105.43 20.2439 104.643 20.2439C103.856 20.2439 103.197 20.4939 102.668 20.996C102.139 21.4981 101.875 22.1887 101.875 23.0658V28.9906H99.532V12.9244H101.875V19.5744ZM116.804 20.0996C116 20.0996 115.358 20.3343 114.873 20.8075C114.39 21.2807 114.088 21.9213 113.971 22.7331H119.515C119.388 21.9001 119.09 21.2538 118.616 20.7921C118.145 20.3304 117.541 20.1015 116.804 20.1015M116.849 18.0259C118.343 18.0259 119.561 18.5453 120.498 19.5821C121.435 20.6209 121.904 21.9713 121.904 23.6391C121.904 23.9815 121.889 24.27 121.86 24.5086H113.959C114.1 25.4165 114.463 26.0975 115.048 26.5515C115.631 27.0035 116.329 27.2305 117.139 27.2305C118.262 27.2305 119.292 26.8554 120.23 26.1033L121.39 27.7653C120.215 28.7694 118.751 29.2715 116.995 29.2715C115.379 29.2715 114.065 28.7579 113.051 27.7268C112.034 26.6957 111.528 25.3377 111.528 23.6487C111.528 21.9597 112.022 20.619 113.007 19.5802C113.994 18.5434 115.275 18.024 116.851 18.024" fill="#004E72"/>
<path d="M141.161 28.9926H129.993V13.3707H132.515V26.6053H141.161V28.9926Z" fill="#004E72"/>
<path d="M147.738 20.2208C146.763 20.2208 145.982 20.5517 145.395 21.2096C144.807 21.8694 144.514 22.6812 144.514 23.6488C144.514 24.6163 144.807 25.4281 145.395 26.086C145.982 26.7439 146.763 27.0747 147.738 27.0747C148.714 27.0747 149.466 26.7516 150.064 26.1052C150.662 25.457 150.962 24.6394 150.962 23.6507C150.962 22.6619 150.662 21.8425 150.064 21.1942C149.464 20.5459 148.691 20.2228 147.738 20.2228M153.15 28.9926H150.818V27.7095C149.999 28.7522 148.881 29.2715 147.459 29.2715C145.949 29.2715 144.682 28.7387 143.654 27.6749C142.627 26.6112 142.116 25.2685 142.116 23.6488C142.116 22.0291 142.629 20.6844 143.654 19.6187C144.682 18.555 145.949 18.024 147.459 18.024C148.873 18.024 149.993 18.5473 150.818 19.5957V18.3011H153.15V28.9907V28.9926Z" fill="#004E72"/>
<path d="M170.124 18.303L167.602 26.4707L164.934 18.303H162.289L159.655 26.4246L157.147 18.303H154.658L158.193 28.9926H160.94L163.583 20.9364L166.228 28.9926H169.018L172.555 18.303H170.124Z" fill="#004E72"/>
<path d="M97.2064 36.666C95.8002 35.7734 94.3382 35.3271 92.8224 35.3271C91.7721 35.3271 90.9257 35.5387 90.2774 35.9619C89.6311 36.3851 89.3079 36.9507 89.3079 37.6586C89.3079 38.2741 89.5734 38.7377 90.1062 39.0417C90.6371 39.3475 91.4547 39.5822 92.555 39.7438L93.6361 39.89C96.9909 40.3651 98.6683 41.7982 98.6683 44.1855C98.6683 45.205 98.3798 46.0937 97.7988 46.8516C97.2179 47.6115 96.4619 48.177 95.5289 48.5483C94.5941 48.9215 93.5553 49.1061 92.4107 49.1061C91.2662 49.1061 90.1601 48.9234 89.0078 48.5579C87.8556 48.1943 86.8937 47.6769 86.1301 47.0074L87.5016 44.9992C88.046 45.4993 88.7751 45.909 89.6888 46.2322C90.6044 46.5573 91.5085 46.717 92.4011 46.717C93.4495 46.717 94.3209 46.5073 95.0115 46.086C95.704 45.6667 96.0483 45.1069 96.0483 44.4067C96.0483 43.818 95.7617 43.3602 95.1846 43.0332C94.6075 42.7062 93.7246 42.46 92.5358 42.2965L91.32 42.1291C90.8295 42.0618 90.3698 41.9656 89.9408 41.8386C89.5137 41.7117 89.0944 41.5328 88.6866 41.3039C88.2788 41.073 87.9306 40.8037 87.644 40.494C87.3573 40.1843 87.1246 39.8015 86.9515 39.3456C86.7745 38.8878 86.6879 38.3761 86.6879 37.8105C86.6879 36.7987 86.9668 35.9196 87.5247 35.1713C88.0826 34.4249 88.8232 33.8652 89.7446 33.492C90.6679 33.1188 91.7009 32.9341 92.8474 32.9341C94.9076 32.9341 96.7889 33.4978 98.4933 34.6192L97.2102 36.6602L97.2064 36.666ZM108.471 41.0172C107.831 40.3767 107.032 40.0573 106.072 40.0573C105.112 40.0573 104.316 40.3786 103.679 41.0172C103.045 41.6578 102.725 42.4792 102.725 43.4833C102.725 44.4875 103.043 45.3108 103.679 45.9494C104.316 46.59 105.114 46.9074 106.072 46.9074C107.03 46.9074 107.833 46.5881 108.471 45.9494C109.112 45.3089 109.431 44.4875 109.431 43.4833C109.431 42.4792 109.11 41.6578 108.471 41.0172ZM103.125 38.5954C104.003 38.1049 104.986 37.8586 106.07 37.8586C107.155 37.8586 108.138 38.1029 109.016 38.5896C109.895 39.0763 110.581 39.7496 111.082 40.6094C111.58 41.4693 111.828 42.4273 111.828 43.4814C111.828 44.5356 111.58 45.4974 111.082 46.3553C110.581 47.2133 109.895 47.8885 109.016 48.3751C108.138 48.8618 107.155 49.1061 106.07 49.1061C104.986 49.1061 104.003 48.8599 103.125 48.3694C102.248 47.8788 101.561 47.2056 101.067 46.3496C100.573 45.4935 100.325 44.5375 100.325 43.4814C100.325 42.4253 100.573 41.4693 101.067 40.6152C101.561 39.7611 102.248 39.0859 103.125 38.5954ZM118.899 37.8606C119.709 37.8606 120.461 38.0068 121.154 38.2953C121.846 38.5858 122.427 39.009 122.895 39.5687L121.4 41.1654C120.619 40.4286 119.765 40.0612 118.834 40.0612C117.903 40.0612 117.174 40.3805 116.575 41.0192C115.975 41.6597 115.677 42.4811 115.677 43.4853C115.677 44.4894 115.975 45.3127 116.575 45.9514C117.174 46.5919 117.926 46.9093 118.834 46.9093C119.742 46.9093 120.659 46.5381 121.456 45.7936L122.895 47.4018C121.906 48.5386 120.573 49.108 118.901 49.108C117.229 49.108 115.871 48.5771 114.835 47.5134C113.796 46.4477 113.276 45.1069 113.276 43.4833C113.276 41.8598 113.796 40.519 114.835 39.4572C115.871 38.3934 117.228 37.8606 118.901 37.8606M126.934 48.8272H124.591V38.1395H126.934V48.8272ZM125.753 32.7937C126.215 32.7937 126.605 32.9534 126.925 33.2727C127.246 33.5939 127.405 33.9844 127.405 34.4442C127.405 34.9039 127.248 35.3021 126.93 35.6099C126.615 35.9177 126.222 36.0716 125.755 36.0716C125.288 36.0716 124.897 35.9177 124.587 35.6099C124.28 35.3002 124.126 34.9116 124.126 34.4442C124.126 33.9767 124.28 33.5824 124.587 33.2669C124.897 32.9514 125.286 32.7937 125.755 32.7937M134.329 39.9342C133.525 39.9342 132.882 40.1708 132.397 40.6421C131.914 41.1153 131.612 41.7559 131.495 42.5677H137.039C136.912 41.7348 136.614 41.0865 136.141 40.6248C135.669 40.1631 135.065 39.9323 134.329 39.9323M134.373 37.8567C135.868 37.8567 137.085 38.3761 138.022 39.4129C138.959 40.4517 139.428 41.8021 139.428 43.4679C139.428 43.8104 139.413 44.1008 139.382 44.3394H131.484C131.624 45.2473 131.988 45.9283 132.572 46.3823C133.155 46.8343 133.854 47.0613 134.663 47.0613C135.787 47.0613 136.816 46.6862 137.755 45.934L138.915 47.5961C137.739 48.6002 136.275 49.1023 134.519 49.1023C132.903 49.1023 131.589 48.5887 130.574 47.5576C129.558 46.5265 129.05 45.1684 129.05 43.4776C129.05 41.7867 129.545 40.4498 130.529 39.411C131.516 38.3742 132.797 37.8548 134.373 37.8548M148.883 40.2593H144.789V44.9126C144.789 45.5897 144.945 46.0918 145.257 46.4188C145.568 46.7458 145.978 46.9093 146.484 46.9093C147.154 46.9093 147.873 46.667 148.639 46.1841L149.564 48.0462C148.514 48.7541 147.421 49.1061 146.282 49.1061C145.047 49.1061 144.099 48.7637 143.437 48.0789C142.775 47.3941 142.444 46.3515 142.444 44.953V40.2555H140.311V38.1356H142.444V34.9001H144.787V38.1356H148.881V40.2555L148.883 40.2593Z" fill="#004E72"/>
<path d="M153.384 53.3593H150.795L154.623 46.6305L149.879 38.1395H152.503L155.939 44.2759L159.253 38.1395H161.819L153.384 53.3593Z" fill="#004E72"/>
</g>
<defs>
<clipPath id="clip0_1253_10176">
<rect width="172.5" height="60" fill="white" transform="translate(0.0551147 0.150635)"/>
</clipPath>
</defs>
</svg>
