<svg width="179" height="36" viewBox="0 0 179 36" fill="none" xmlns="http://www.w3.org/2000/svg">
<path d="M56.4436 29.2055C53.1831 29.2055 50.4786 28.1313 48.3429 25.9703C46.1945 23.8092 45.1203 21.1553 45.1203 17.9707C45.1203 14.786 46.1945 12.1321 48.3429 9.97106C50.4912 7.82267 53.1831 6.73584 56.4436 6.73584C59.7041 6.73584 60.2096 7.20343 61.8777 8.12598C63.5332 9.04852 64.8349 10.3123 65.7575 11.9046L62.6613 13.6992C62.0799 12.625 61.2458 11.7782 60.1464 11.1464C59.0469 10.5145 57.8084 10.1985 56.4562 10.1985C54.1435 10.1985 52.2731 10.9315 50.8451 12.3975C49.4171 13.8634 48.6967 15.7212 48.6967 17.958C48.6967 20.1949 49.4171 22.0653 50.8451 23.5186C52.2731 24.9719 54.1435 25.7175 56.4562 25.7175C58.7689 25.7175 59.0595 25.4016 60.1716 24.7697C61.2838 24.1378 62.1178 23.2911 62.6739 22.2169L65.7701 23.9735C64.8602 25.5659 63.5838 26.8296 61.9156 27.7648C60.2475 28.7 58.4403 29.1676 56.4562 29.1676L56.4436 29.2055Z" fill="#010233"/>
<path d="M75.7411 29.2055C73.4663 29.2055 71.5454 28.4219 69.9531 26.8549C68.3607 25.2878 67.5772 23.3543 67.5772 21.0669C67.5772 18.7795 68.3734 16.8459 69.9531 15.2788C71.5328 13.7118 73.4663 12.9283 75.7411 12.9283C78.0159 12.9283 79.9621 13.7118 81.5418 15.2788C83.1215 16.8459 83.905 18.7795 83.905 21.0669C83.905 23.3543 83.1215 25.2878 81.5418 26.8549C79.9621 28.4219 78.0285 29.2055 75.7411 29.2055ZM72.3037 24.5675C73.2262 25.49 74.3762 25.9576 75.7411 25.9576C77.106 25.9576 78.2433 25.49 79.1785 24.5675C80.1011 23.6449 80.5687 22.4696 80.5687 21.0669C80.5687 19.6641 80.1011 18.5014 79.1785 17.5663C78.256 16.6311 77.106 16.1761 75.7411 16.1761C74.3762 16.1761 73.2388 16.6437 72.3037 17.5663C71.3811 18.4888 70.9135 19.6641 70.9135 21.0669C70.9135 22.4696 71.3811 23.6323 72.3037 24.5675Z" fill="#010233"/>
<path d="M103.822 12.9409C105.579 12.9409 106.981 13.5096 108.056 14.647C109.13 15.7844 109.66 17.3009 109.66 19.2218V28.8137H106.324V19.4366C106.324 18.3624 106.059 17.541 105.515 16.947C104.985 16.353 104.252 16.0624 103.316 16.0624C102.381 16.0624 101.459 16.4036 100.852 17.086C100.245 17.7685 99.9422 18.7921 99.9422 20.1443V28.8011H96.6058V19.424C96.6058 18.3498 96.3531 17.5283 95.8476 16.9344C95.3421 16.3404 94.6217 16.0497 93.6992 16.0497C92.7767 16.0497 91.8667 16.391 91.2222 17.086C90.5777 17.7811 90.2618 18.7921 90.2618 20.1317V28.7884H86.9254V13.32H90.2618V15.1777C91.2475 13.6739 92.7261 12.9156 94.6849 12.9156C96.6438 12.9156 98.1224 13.7244 99.0828 15.3547C100.119 13.7244 101.699 12.9156 103.822 12.9156V12.9409Z" fill="#010233"/>
<path d="M121.995 12.9409C124.118 12.9409 125.938 13.7244 127.442 15.3041C128.945 16.8838 129.704 18.8047 129.704 21.0669C129.704 23.329 128.945 25.2878 127.442 26.8549C125.938 28.4219 124.118 29.2055 121.995 29.2055C119.872 29.2055 117.837 28.3461 116.586 26.6021V34.9809H113.25V13.3327H116.586V15.5569C117.837 13.8002 119.644 12.9283 121.995 12.9283V12.9409ZM117.976 24.618C118.899 25.5532 120.074 26.0208 121.477 26.0208C122.879 26.0208 124.042 25.5532 124.977 24.618C125.9 23.6829 126.367 22.4949 126.367 21.0795C126.367 19.6641 125.9 18.4762 124.977 17.541C124.055 16.6058 122.879 16.1382 121.477 16.1382C120.074 16.1382 118.911 16.6058 117.976 17.541C117.053 18.4762 116.586 19.6641 116.586 21.0795C116.586 22.4949 117.053 23.6829 117.976 24.618Z" fill="#010233"/>
<path d="M132.724 28.8137V6.24297H136.06V28.8137H132.724Z" fill="#010233"/>
<path d="M140.155 21.0163V17.7937H151.592V21.0163H140.155Z" fill="#010233"/>
<path d="M169.095 28.8137L167.566 24.4537H158.366L156.849 28.8137H152.982L160.843 7.16552H165.114L172.937 28.8137H169.108H169.095ZM159.541 21.1048H166.403L162.978 11.3359L159.541 21.1048Z" fill="#010233"/>
<path d="M178.371 7.15287H175.035V28.8011H178.371V7.15287Z" fill="#010233"/>
<path d="M35.6294 17.9833H31.1683C30.9661 17.9833 30.8018 18.1476 30.8018 18.3498C30.5996 25.528 24.483 31.2401 17.1279 30.7473C10.3794 30.2797 5.07165 24.4158 5.23594 17.6674C5.26121 16.4668 5.46341 15.3168 5.79199 14.2173C6.33541 12.4607 7.24531 10.8683 8.43325 9.52874C10.7838 6.87485 14.196 5.20669 18.0125 5.20669C21.8291 5.20669 24.2429 6.43254 26.4924 8.42928C26.8841 8.7705 27.2506 9.13698 27.5918 9.52874L31.282 5.83857C30.9282 5.45944 30.5617 5.09295 30.1826 4.7391C26.9726 1.79454 22.7011 0 17.9999 0C13.2987 0 8.01621 2.24949 4.71779 5.83857C3.52986 7.14024 2.53149 8.6062 1.7606 10.2112C0.484201 12.8651 -0.147681 15.8728 0.0292456 19.0575C0.534749 27.9923 7.75082 35.3094 16.673 35.954C27.0863 36.6869 35.7684 28.5736 35.9832 18.3877C35.9832 18.1729 35.8063 17.9959 35.6041 17.9959L35.6294 17.9833Z" fill="url(#paint0_linear_1524_1971)"/>
<path d="M41.228 2.32531C41.5565 2.32531 41.7335 2.72972 41.4933 2.96983L34.252 10.2112L30.2332 14.2173L21.6776 22.773L21.0078 23.4427C19.3649 25.0983 16.6857 25.0983 15.0302 23.4427L14.3478 22.7603L8.2059 16.6184L8.62294 16.2014C10.4175 14.4069 13.3241 14.4069 15.106 16.2014L18.0127 19.108L27.592 9.52874L34.6817 2.43905C34.7575 2.36323 34.846 2.32531 34.9471 2.32531H41.2153H41.228Z" fill="url(#paint1_linear_1524_1971)"/>
<path opacity="0.1" d="M31.2946 5.82593L27.6044 9.51611C27.2632 9.12434 26.8967 8.75785 26.505 8.41664L30.1951 4.72646C30.5743 5.08031 30.9408 5.4468 31.2946 5.82593Z" fill="#181919"/>
<defs>
<linearGradient id="paint0_linear_1524_1971" x1="18.0252" y1="-0.379128" x2="18.0252" y2="34.4501" gradientUnits="userSpaceOnUse">
<stop stop-color="#0A58EB"/>
</linearGradient>
<linearGradient id="paint1_linear_1524_1971" x1="24.9128" y1="0.126368" x2="24.9128" y2="34.9556" gradientUnits="userSpaceOnUse">
<stop stop-color="#0A58EB"/>
</linearGradient>
</defs>
</svg>
