<svg width="1440" height="1183" viewBox="0 0 1440 1183" fill="none" xmlns="http://www.w3.org/2000/svg">
<path d="M50 1183V0" stroke="#C1C7CF" stroke-opacity="0.2"/>
<path d="M100 1183V0" stroke="#C1C7CF" stroke-opacity="0.2"/>
<path d="M150 1183V0" stroke="#C1C7CF" stroke-opacity="0.2"/>
<path d="M200 1183V0" stroke="#C1C7CF" stroke-opacity="0.2"/>
<path d="M250 1183V0" stroke="#C1C7CF" stroke-opacity="0.2"/>
<path d="M300 1183V0" stroke="#C1C7CF" stroke-opacity="0.2"/>
<path d="M350 1183V0" stroke="#C1C7CF" stroke-opacity="0.2"/>
<path d="M400 1183V0" stroke="#C1C7CF" stroke-opacity="0.2"/>
<path d="M450 1183V0" stroke="#C1C7CF" stroke-opacity="0.2"/>
<path d="M500 1183V0" stroke="#C1C7CF" stroke-opacity="0.2"/>
<path d="M550 1183V0" stroke="#C1C7CF" stroke-opacity="0.2"/>
<path d="M600 1183V0" stroke="#C1C7CF" stroke-opacity="0.2"/>
<path d="M650 1183V0" stroke="#C1C7CF" stroke-opacity="0.2"/>
<path d="M700 1183V0" stroke="#C1C7CF" stroke-opacity="0.2"/>
<path d="M750 1183V0" stroke="#C1C7CF" stroke-opacity="0.2"/>
<path d="M800 1183V0" stroke="#C1C7CF" stroke-opacity="0.2"/>
<path d="M850 1183V0" stroke="#C1C7CF" stroke-opacity="0.2"/>
<path d="M900 1183V0" stroke="#C1C7CF" stroke-opacity="0.2"/>
<path d="M950 1183V0" stroke="#C1C7CF" stroke-opacity="0.2"/>
<path d="M1000 1183V0" stroke="#C1C7CF" stroke-opacity="0.2"/>
<path d="M1050 1183V0" stroke="#C1C7CF" stroke-opacity="0.2"/>
<path d="M1100 1183V0" stroke="#C1C7CF" stroke-opacity="0.2"/>
<path d="M1150 1183V0" stroke="#C1C7CF" stroke-opacity="0.2"/>
<path d="M1200 1183V0" stroke="#C1C7CF" stroke-opacity="0.2"/>
<path d="M1250 1183V0" stroke="#C1C7CF" stroke-opacity="0.2"/>
<path d="M1300 1183V0" stroke="#C1C7CF" stroke-opacity="0.2"/>
<path d="M1350 1183V0" stroke="#C1C7CF" stroke-opacity="0.2"/>
<path d="M1400 1183V0" stroke="#C1C7CF" stroke-opacity="0.2"/>
<path d="M0 57.7637H1440" stroke="#C1C7CF" stroke-opacity="0.2"/>
<path d="M0 115.527H1440" stroke="#C1C7CF" stroke-opacity="0.2"/>
<path d="M0 173.291H1440" stroke="#C1C7CF" stroke-opacity="0.2"/>
<path d="M0 231.055H1440" stroke="#C1C7CF" stroke-opacity="0.2"/>
<path d="M0 288.818H1440" stroke="#C1C7CF" stroke-opacity="0.2"/>
<path d="M0 346.582H1440" stroke="#C1C7CF" stroke-opacity="0.2"/>
<path d="M0 404.346H1440" stroke="#C1C7CF" stroke-opacity="0.2"/>
<path d="M0 462.109H1440" stroke="#C1C7CF" stroke-opacity="0.2"/>
<path d="M0 519.873H1440" stroke="#C1C7CF" stroke-opacity="0.2"/>
<path d="M0 577.637H1440" stroke="#C1C7CF" stroke-opacity="0.2"/>
<path d="M0 635.4H1440" stroke="#C1C7CF" stroke-opacity="0.2"/>
<path d="M0 693.164H1440" stroke="#C1C7CF" stroke-opacity="0.2"/>
<path d="M0 750.928H1440" stroke="#C1C7CF" stroke-opacity="0.2"/>
<path d="M0 808.691H1440" stroke="#C1C7CF" stroke-opacity="0.2"/>
<path d="M0 866.455H1440" stroke="#C1C7CF" stroke-opacity="0.2"/>
<path d="M0 924.219H1440" stroke="#C1C7CF" stroke-opacity="0.2"/>
<path d="M0 981.982H1440" stroke="#C1C7CF" stroke-opacity="0.2"/>
<path d="M0 1039.75H1440" stroke="#C1C7CF" stroke-opacity="0.2"/>
<path d="M0 1097.51H1440" stroke="#C1C7CF" stroke-opacity="0.2"/>
<path d="M0 1155.27H1440" stroke="#C1C7CF" stroke-opacity="0.2"/>
</svg>
