<svg width="24" height="26" viewBox="0 0 24 26" fill="none" xmlns="http://www.w3.org/2000/svg">
<path d="M2.58421 15.5708L8.00558 6.24276L10.9849 11.3219H14.648C14.648 11.3219 10.7407 4.43577 10.1546 3.65435C10.1546 3.65435 8.5428 1.16362 5.36812 2.72643C2.19345 4.28925 3.85405 8.14743 3.85405 8.14743C2.43867 8.26906 1.62969 8.505 0.777049 9.56372C-1.71382 13.7638 2.58421 15.5708 2.58421 15.5708Z" fill="#0A58EB"/>
<path d="M18.0145 16.2786L7.22498 16.2479L10.1343 11.1283L8.30275 7.95622C8.30275 7.95622 4.29244 14.7829 3.90869 15.6811C3.90869 15.6811 2.55741 18.3222 5.49827 20.29C8.43914 22.2577 10.9504 18.8906 10.9504 18.8906C11.7634 20.0555 12.3722 20.6381 13.7155 20.8471C18.5985 20.904 18.0145 16.2786 18.0145 16.2786Z" fill="#0A58EB"/>
<path d="M11.1371 3.04174L16.5053 12.4005L10.6167 12.4409L8.78513 15.613C8.78513 15.613 16.7027 15.6725 17.6726 15.5557C17.6726 15.5557 20.6356 15.4053 20.8694 11.8747C21.1033 8.34413 16.9314 7.85306 16.9314 7.85306C17.5338 6.56657 17.7339 5.74806 17.2433 4.48034C14.8512 0.2233 11.1371 3.04174 11.1371 3.04174Z" fill="#0A58EB"/>
</svg>
