<svg width="14" height="14" viewBox="0 0 14 14" fill="none" xmlns="http://www.w3.org/2000/svg">
<path d="M1.9375 3.625C2.86948 3.625 3.625 2.86948 3.625 1.9375C3.625 1.00552 2.86948 0.25 1.9375 0.25C1.00552 0.25 0.25 1.00552 0.25 1.9375C0.25 2.86948 1.00552 3.625 1.9375 3.625Z" fill="#0A58EB"/>
<path d="M3.34375 4.75H0.53125C0.376 4.75 0.25 4.876 0.25 5.03125V13.4688C0.25 13.624 0.376 13.75 0.53125 13.75H3.34375C3.499 13.75 3.625 13.624 3.625 13.4688V5.03125C3.625 4.876 3.499 4.75 3.34375 4.75Z" fill="#0A58EB"/>
<path d="M11.7233 4.36247C10.5212 3.95072 9.01769 4.31241 8.116 4.96097C8.08506 4.84003 7.97481 4.75003 7.84375 4.75003H5.03125C4.876 4.75003 4.75 4.87603 4.75 5.03128V13.4688C4.75 13.624 4.876 13.75 5.03125 13.75H7.84375C7.999 13.75 8.125 13.624 8.125 13.4688V7.40503C8.5795 7.01353 9.16506 6.88866 9.64431 7.09228C10.1089 7.2886 10.375 7.76785 10.375 8.40628V13.4688C10.375 13.624 10.501 13.75 10.6562 13.75H13.4688C13.624 13.75 13.75 13.624 13.75 13.4688V7.83985C13.7179 5.52853 12.6306 4.67297 11.7233 4.36247Z" fill="#0A58EB"/>
</svg>
