<svg width="68" height="47" viewBox="0 0 68 47" fill="none" xmlns="http://www.w3.org/2000/svg">
<path fill-rule="evenodd" clip-rule="evenodd" d="M12.6281 10.9859C13.7116 10.7241 14.8191 10.5923 15.93 10.5929C24.7275 10.5929 31.8572 18.7409 31.8572 28.7879C31.8572 38.8379 24.7275 46.9859 15.93 46.9859C7.1325 46.9859 0 38.8409 0 28.7879C0 28.4939 0.005625 28.1969 0.0196875 27.9029H0C0 12.7379 10.8 0.398926 24.075 0.398926V6.50692C19.7691 6.50692 15.7978 8.18092 12.6281 10.9859ZM48.2738 10.9859C49.3369 10.7279 50.4394 10.5929 51.57 10.5929C60.3675 10.5929 67.5 18.7409 67.5 28.7879C67.5 38.8379 60.3675 46.9859 51.57 46.9859C42.7725 46.9859 35.6428 38.8409 35.6428 28.7879C35.6428 28.4939 35.6484 28.1969 35.6625 27.9029H35.6428C35.6428 12.7379 46.4428 0.398926 59.7178 0.398926V6.50692C55.4091 6.50692 51.4434 8.18092 48.2738 10.9859Z" fill="#0A58EB"/>
</svg>
