<svg width="14" height="14" viewBox="0 0 14 14" fill="none" xmlns="http://www.w3.org/2000/svg">
<path fill-rule="evenodd" clip-rule="evenodd" d="M13.5303 1.53033C13.8232 1.23743 13.8232 0.762565 13.5303 0.469668C13.2374 0.176778 12.7626 0.176778 12.4697 0.469668L8.011 4.92834L4.80506 0.556487C4.66378 0.363827 4.43916 0.25 4.20025 0.25H1C0.717378 0.25 0.458748 0.40888 0.331 0.660985C0.203245 0.91309 0.228063 1.2156 0.395193 1.44351L5.09154 7.8478L0.469668 12.4697C0.176778 12.7626 0.176778 13.2374 0.469668 13.5303C0.762565 13.8232 1.23744 13.8232 1.53033 13.5303L5.989 9.07165L9.19495 13.4436C9.33625 13.6362 9.56087 13.75 9.79975 13.75H13C13.2826 13.75 13.5413 13.5911 13.669 13.339C13.7967 13.0869 13.772 12.7844 13.6048 12.5564L8.90845 6.1522L13.5303 1.53033ZM7.27773 6.46488C7.3009 6.5035 7.32783 6.5404 7.35857 6.5752L11.5199 12.25H10.1798L2.48004 1.75H3.8202L7.27773 6.46488Z" fill="#0A58EB"/>
</svg>
