<svg width="101" height="101" viewBox="0 0 101 101" fill="none" xmlns="http://www.w3.org/2000/svg">
<rect width="101" height="101" rx="12" fill="url(#paint0_linear_1639_12314)"/>
<rect x="0.5" y="0.5" width="100" height="100" rx="11.5" stroke="url(#paint1_linear_1639_12314)" stroke-opacity="0.4"/>
<g clip-path="url(#clip0_1639_12314)">
<rect x="6" y="6" width="90" height="90" rx="8" fill="url(#paint2_linear_1639_12314)"/>
<rect x="18" y="24" width="66" height="78" rx="4" fill="url(#paint3_linear_1639_12314)"/>
<rect x="27" y="40" width="27" height="6" rx="2" fill="#73726D"/>
<rect x="27" y="73" width="27" height="7" rx="2" fill="#73726D"/>
<rect x="27" y="50" width="37" height="4" rx="2" fill="#BABABA"/>
<rect x="27" y="85" width="53" height="6" rx="2" fill="#BABABA"/>
<rect x="22" y="59" width="46" height="3" rx="1.5" fill="#F0F0F0"/>
<path d="M18.8962 19.3125L20.3688 23.0475L24.1038 24.5212L20.3688 25.9938L18.8962 29.7288L17.4225 25.9938L13.6875 24.5212L17.4225 23.0475L18.8962 19.3125Z" fill="#0A58EB"/>
<path d="M18.8962 18.7912C19.1087 18.7912 19.3025 18.9225 19.38 19.1213L20.77 22.6462L24.295 24.0363C24.392 24.0748 24.4752 24.1416 24.5338 24.2279C24.5924 24.3143 24.6237 24.4163 24.6237 24.5206C24.6237 24.625 24.5924 24.7269 24.5338 24.8133C24.4752 24.8997 24.392 24.9664 24.295 25.005L20.77 26.395L19.38 29.92C19.3414 30.017 19.2747 30.1002 19.1883 30.1588C19.1019 30.2174 19 30.2487 18.8956 30.2487C18.7913 30.2487 18.6893 30.2174 18.6029 30.1588C18.5166 30.1002 18.4498 30.017 18.4112 29.92L17.0212 26.395L13.4962 25.005C13.3993 24.9664 13.3161 24.8997 13.2575 24.8133C13.1989 24.7269 13.1676 24.625 13.1676 24.5206C13.1676 24.4163 13.1989 24.3143 13.2575 24.2279C13.3161 24.1416 13.3993 24.0748 13.4962 24.0363L17.0212 22.6462L18.4112 19.1213C18.4501 19.0242 18.517 18.941 18.6034 18.8822C18.6898 18.8234 18.7917 18.7917 18.8962 18.7912ZM18.8962 20.7325L17.9075 23.2375C17.8811 23.3039 17.8414 23.3642 17.7909 23.4147C17.7404 23.4652 17.6801 23.5048 17.6137 23.5312L15.1075 24.5188L17.6137 25.5087C17.68 25.535 17.7402 25.5745 17.7907 25.6248C17.8412 25.6751 17.881 25.7351 17.9075 25.8013L18.895 28.3087L19.885 25.8013C19.9114 25.7352 19.9509 25.6753 20.0012 25.625C20.0515 25.5747 20.1115 25.5352 20.1775 25.5087L22.685 24.52L20.1775 23.5312C20.1114 23.5047 20.0513 23.465 20.001 23.4145C19.9507 23.364 19.9113 23.3038 19.885 23.2375L18.8962 20.7325ZM14.2087 17.75L14.8713 19.17L16.2913 19.8325L14.8713 20.4963L14.2087 21.9163L13.5463 20.4963L12.125 19.8337L13.545 19.1713L14.2087 17.75Z" fill="#0A58EB"/>
</g>
<rect x="6.5" y="6.5" width="89" height="89" rx="7.5" stroke="url(#paint4_linear_1639_12314)" stroke-opacity="0.4"/>
<defs>
<linearGradient id="paint0_linear_1639_12314" x1="101" y1="6.62924e-06" x2="-17.0587" y2="8.75185" gradientUnits="userSpaceOnUse">
<stop stop-color="#F0F0F0" stop-opacity="0.8"/>
<stop offset="1" stop-color="#8A8A8A" stop-opacity="0"/>
</linearGradient>
<linearGradient id="paint1_linear_1639_12314" x1="0" y1="0" x2="21.5327" y2="112.369" gradientUnits="userSpaceOnUse">
<stop stop-color="white"/>
<stop offset="1" stop-color="#EEEDED" stop-opacity="0.5"/>
</linearGradient>
<linearGradient id="paint2_linear_1639_12314" x1="51" y1="6" x2="51" y2="96" gradientUnits="userSpaceOnUse">
<stop stop-color="#F9F9F9"/>
<stop offset="0.956667" stop-color="#F0F0F0"/>
</linearGradient>
<linearGradient id="paint3_linear_1639_12314" x1="84" y1="24" x2="6.73278" y2="28.8467" gradientUnits="userSpaceOnUse">
<stop stop-color="#F0F0F0" stop-opacity="0.8"/>
<stop offset="1" stop-color="#8A8A8A" stop-opacity="0"/>
</linearGradient>
<linearGradient id="paint4_linear_1639_12314" x1="6" y1="6" x2="25.1876" y2="106.131" gradientUnits="userSpaceOnUse">
<stop stop-color="white"/>
<stop offset="1" stop-color="#EEEDED" stop-opacity="0.5"/>
</linearGradient>
<clipPath id="clip0_1639_12314">
<rect x="6" y="6" width="90" height="90" rx="8" fill="white"/>
</clipPath>
</defs>
</svg>
