<svg width="350" height="177" viewBox="0 0 350 177" fill="none" xmlns="http://www.w3.org/2000/svg">
<rect y="140" width="350" height="37" rx="6" fill="#787880" fill-opacity="0.12"/>
<rect x="4" y="143" width="24" height="32" rx="4" fill="url(#paint0_linear_1639_12382)"/>
<path d="M16.3375 155.952H25.8375L16.3375 147.214V155.952Z" fill="#CFCFCF"/>
<path d="M17 147.45H6V170.357H26V155.923H17V147.45Z" fill="url(#paint1_linear_1639_12382)"/>
<path d="M8.99997 163.351C8.99997 162.917 9.3524 162.564 9.78714 162.564H22.2128C22.6475 162.564 23 162.917 23 163.351C23 163.786 22.6475 164.139 22.2128 164.139H9.78714C9.3524 164.139 8.99997 163.786 8.99997 163.351ZM8.99997 166.815C8.99997 166.38 9.3524 166.028 9.78714 166.028H22.2128C22.6475 166.028 23 166.38 23 166.815C23 167.25 22.6475 167.602 22.2128 167.602H9.78714C9.3524 167.602 8.99997 167.25 8.99997 166.815ZM8.99997 159.888C8.99997 159.453 9.3524 159.101 9.78714 159.101H22.2128C22.6475 159.101 23 159.453 23 159.888C23 160.323 22.6475 160.675 22.2128 160.675H9.78714C9.3524 160.675 8.99997 160.323 8.99997 159.888ZM8.99997 156.424C8.99997 155.99 9.3524 155.637 9.78714 155.637H22.2128C22.6475 155.637 23 155.99 23 156.424C23 156.859 22.6475 157.211 22.2128 157.211H9.78714C9.3524 157.211 8.99997 156.859 8.99997 156.424ZM8.99997 152.961C8.99997 152.526 9.3524 152.174 9.78714 152.174H13.2128C13.6475 152.174 14 152.526 14 152.961C14 153.395 13.6475 153.748 13.2128 153.748H9.78714C9.3524 153.748 8.99997 153.395 8.99997 152.961Z" fill="url(#paint2_linear_1639_12382)"/>
<path d="M40.9232 153.45H37.8832L37.3232 155H36.3632L38.8832 148.07H39.9332L42.4432 155H41.4832L40.9232 153.45ZM40.6632 152.71L39.4032 149.19L38.1432 152.71H40.6632ZM50.6115 148.08V155H49.7015V149.84L47.4015 155H46.7615L44.4515 149.83V155H43.5415V148.08H44.5215L47.0815 153.8L49.6415 148.08H50.6115ZM53.0648 154.26H55.5048V155H52.1548V148.03H53.0648V154.26ZM62.0712 155.38V156.22H56.7512V155.38H62.0712ZM68.4652 150.07C68.4652 150.65 68.2652 151.133 67.8652 151.52C67.4718 151.9 66.8685 152.09 66.0552 152.09H64.7152V155H63.8052V148.03H66.0552C66.8418 148.03 67.4385 148.22 67.8452 148.6C68.2585 148.98 68.4652 149.47 68.4652 150.07ZM66.0552 151.34C66.5618 151.34 66.9352 151.23 67.1752 151.01C67.4152 150.79 67.5352 150.477 67.5352 150.07C67.5352 149.21 67.0418 148.78 66.0552 148.78H64.7152V151.34H66.0552ZM71.9862 155.09C71.4728 155.09 71.0062 154.973 70.5862 154.74C70.1728 154.507 69.8462 154.177 69.6062 153.75C69.3728 153.317 69.2562 152.817 69.2562 152.25C69.2562 151.69 69.3762 151.197 69.6162 150.77C69.8628 150.337 70.1962 150.007 70.6162 149.78C71.0362 149.547 71.5062 149.43 72.0262 149.43C72.5462 149.43 73.0162 149.547 73.4362 149.78C73.8562 150.007 74.1862 150.333 74.4262 150.76C74.6728 151.187 74.7962 151.683 74.7962 152.25C74.7962 152.817 74.6695 153.317 74.4162 153.75C74.1695 154.177 73.8328 154.507 73.4062 154.74C72.9795 154.973 72.5062 155.09 71.9862 155.09ZM71.9862 154.29C72.3128 154.29 72.6195 154.213 72.9062 154.06C73.1928 153.907 73.4228 153.677 73.5962 153.37C73.7762 153.063 73.8662 152.69 73.8662 152.25C73.8662 151.81 73.7795 151.437 73.6062 151.13C73.4328 150.823 73.2062 150.597 72.9262 150.45C72.6462 150.297 72.3428 150.22 72.0162 150.22C71.6828 150.22 71.3762 150.297 71.0962 150.45C70.8228 150.597 70.6028 150.823 70.4362 151.13C70.2695 151.437 70.1862 151.81 70.1862 152.25C70.1862 152.697 70.2662 153.073 70.4262 153.38C70.5928 153.687 70.8128 153.917 71.0862 154.07C71.3595 154.217 71.6595 154.29 71.9862 154.29ZM76.9027 147.6V155H75.9927V147.6H76.9027ZM78.9236 148.63C78.7503 148.63 78.6036 148.57 78.4836 148.45C78.3636 148.33 78.3036 148.183 78.3036 148.01C78.3036 147.837 78.3636 147.69 78.4836 147.57C78.6036 147.45 78.7503 147.39 78.9236 147.39C79.0903 147.39 79.2303 147.45 79.3436 147.57C79.4636 147.69 79.5236 147.837 79.5236 148.01C79.5236 148.183 79.4636 148.33 79.3436 148.45C79.2303 148.57 79.0903 148.63 78.9236 148.63ZM79.3636 149.52V155H78.4536V149.52H79.3636ZM80.5745 152.25C80.5745 151.683 80.6879 151.19 80.9145 150.77C81.1412 150.343 81.4545 150.013 81.8545 149.78C82.2612 149.547 82.7245 149.43 83.2445 149.43C83.9179 149.43 84.4712 149.593 84.9045 149.92C85.3445 150.247 85.6345 150.7 85.7745 151.28H84.7945C84.7012 150.947 84.5179 150.683 84.2445 150.49C83.9779 150.297 83.6445 150.2 83.2445 150.2C82.7245 150.2 82.3045 150.38 81.9845 150.74C81.6645 151.093 81.5045 151.597 81.5045 152.25C81.5045 152.91 81.6645 153.42 81.9845 153.78C82.3045 154.14 82.7245 154.32 83.2445 154.32C83.6445 154.32 83.9779 154.227 84.2445 154.04C84.5112 153.853 84.6945 153.587 84.7945 153.24H85.7745C85.6279 153.8 85.3345 154.25 84.8945 154.59C84.4545 154.923 83.9045 155.09 83.2445 155.09C82.7245 155.09 82.2612 154.973 81.8545 154.74C81.4545 154.507 81.1412 154.177 80.9145 153.75C80.6879 153.323 80.5745 152.823 80.5745 152.25ZM91.7088 149.52L88.4088 157.58H87.4688L88.5488 154.94L86.3388 149.52H87.3488L89.0688 153.96L90.7688 149.52H91.7088ZM92.9135 155.06C92.7402 155.06 92.5935 155 92.4735 154.88C92.3535 154.76 92.2935 154.613 92.2935 154.44C92.2935 154.267 92.3535 154.12 92.4735 154C92.5935 153.88 92.7402 153.82 92.9135 153.82C93.0802 153.82 93.2202 153.88 93.3335 154C93.4535 154.12 93.5135 154.267 93.5135 154.44C93.5135 154.613 93.4535 154.76 93.3335 154.88C93.2202 155 93.0802 155.06 92.9135 155.06ZM94.3831 152.24C94.3831 151.68 94.4965 151.19 94.7231 150.77C94.9498 150.343 95.2598 150.013 95.6531 149.78C96.0531 149.547 96.4998 149.43 96.9931 149.43C97.4198 149.43 97.8165 149.53 98.1831 149.73C98.5498 149.923 98.8298 150.18 99.0231 150.5V147.6H99.9431V155H99.0231V153.97C98.8431 154.297 98.5765 154.567 98.2231 154.78C97.8698 154.987 97.4565 155.09 96.9831 155.09C96.4965 155.09 96.0531 154.97 95.6531 154.73C95.2598 154.49 94.9498 154.153 94.7231 153.72C94.4965 153.287 94.3831 152.793 94.3831 152.24ZM99.0231 152.25C99.0231 151.837 98.9398 151.477 98.7731 151.17C98.6065 150.863 98.3798 150.63 98.0931 150.47C97.8131 150.303 97.5031 150.22 97.1631 150.22C96.8231 150.22 96.5131 150.3 96.2331 150.46C95.9531 150.62 95.7298 150.853 95.5631 151.16C95.3965 151.467 95.3131 151.827 95.3131 152.24C95.3131 152.66 95.3965 153.027 95.5631 153.34C95.7298 153.647 95.9531 153.883 96.2331 154.05C96.5131 154.21 96.8231 154.29 97.1631 154.29C97.5031 154.29 97.8131 154.21 98.0931 154.05C98.3798 153.883 98.6065 153.647 98.7731 153.34C98.9398 153.027 99.0231 152.663 99.0231 152.25ZM103.871 155.09C103.358 155.09 102.891 154.973 102.471 154.74C102.058 154.507 101.731 154.177 101.491 153.75C101.258 153.317 101.141 152.817 101.141 152.25C101.141 151.69 101.261 151.197 101.501 150.77C101.748 150.337 102.081 150.007 102.501 149.78C102.921 149.547 103.391 149.43 103.911 149.43C104.431 149.43 104.901 149.547 105.321 149.78C105.741 150.007 106.071 150.333 106.311 150.76C106.558 151.187 106.681 151.683 106.681 152.25C106.681 152.817 106.554 153.317 106.301 153.75C106.054 154.177 105.718 154.507 105.291 154.74C104.864 154.973 104.391 155.09 103.871 155.09ZM103.871 154.29C104.198 154.29 104.504 154.213 104.791 154.06C105.078 153.907 105.308 153.677 105.481 153.37C105.661 153.063 105.751 152.69 105.751 152.25C105.751 151.81 105.664 151.437 105.491 151.13C105.318 150.823 105.091 150.597 104.811 150.45C104.531 150.297 104.228 150.22 103.901 150.22C103.568 150.22 103.261 150.297 102.981 150.45C102.708 150.597 102.488 150.823 102.321 151.13C102.154 151.437 102.071 151.81 102.071 152.25C102.071 152.697 102.151 153.073 102.311 153.38C102.478 153.687 102.698 153.917 102.971 154.07C103.244 154.217 103.544 154.29 103.871 154.29ZM107.537 152.25C107.537 151.683 107.651 151.19 107.877 150.77C108.104 150.343 108.417 150.013 108.817 149.78C109.224 149.547 109.687 149.43 110.207 149.43C110.881 149.43 111.434 149.593 111.867 149.92C112.307 150.247 112.597 150.7 112.737 151.28H111.757C111.664 150.947 111.481 150.683 111.207 150.49C110.941 150.297 110.607 150.2 110.207 150.2C109.687 150.2 109.267 150.38 108.947 150.74C108.627 151.093 108.467 151.597 108.467 152.25C108.467 152.91 108.627 153.42 108.947 153.78C109.267 154.14 109.687 154.32 110.207 154.32C110.607 154.32 110.941 154.227 111.207 154.04C111.474 153.853 111.657 153.587 111.757 153.24H112.737C112.591 153.8 112.297 154.25 111.857 154.59C111.417 154.923 110.867 155.09 110.207 155.09C109.687 155.09 109.224 154.973 108.817 154.74C108.417 154.507 108.104 154.177 107.877 153.75C107.651 153.323 107.537 152.823 107.537 152.25ZM116.812 155L115.512 152.96L114.262 155H113.312L115.082 152.28L113.312 149.52H114.342L115.642 151.55L116.882 149.52H117.832L116.072 152.23L117.842 155H116.812Z" fill="#73726D"/>
<path d="M36.7225 164.75V163.71H38.8025V171H37.6525V164.75H36.7225ZM44.2886 165.4C44.2152 165.093 44.0819 164.863 43.8886 164.71C43.6952 164.557 43.4252 164.48 43.0786 164.48C42.5519 164.48 42.1586 164.683 41.8986 165.09C41.6386 165.49 41.5019 166.157 41.4886 167.09C41.6619 166.797 41.9152 166.57 42.2486 166.41C42.5819 166.25 42.9419 166.17 43.3286 166.17C43.7686 166.17 44.1552 166.267 44.4886 166.46C44.8286 166.647 45.0919 166.92 45.2786 167.28C45.4719 167.64 45.5686 168.07 45.5686 168.57C45.5686 169.037 45.4752 169.453 45.2886 169.82C45.1086 170.187 44.8386 170.477 44.4786 170.69C44.1186 170.897 43.6852 171 43.1786 171C42.4919 171 41.9519 170.85 41.5586 170.55C41.1719 170.243 40.8986 169.813 40.7386 169.26C40.5852 168.707 40.5086 168.017 40.5086 167.19C40.5086 164.75 41.3686 163.53 43.0886 163.53C43.7552 163.53 44.2786 163.71 44.6586 164.07C45.0452 164.43 45.2719 164.873 45.3386 165.4H44.2886ZM43.0786 167.13C42.6719 167.13 42.3252 167.253 42.0386 167.5C41.7586 167.74 41.6186 168.09 41.6186 168.55C41.6186 169.01 41.7486 169.377 42.0086 169.65C42.2752 169.917 42.6452 170.05 43.1186 170.05C43.5386 170.05 43.8686 169.92 44.1086 169.66C44.3552 169.4 44.4786 169.053 44.4786 168.62C44.4786 168.167 44.3586 167.807 44.1186 167.54C43.8852 167.267 43.5386 167.13 43.0786 167.13ZM47.3946 171.07C47.1879 171.07 47.0146 171 46.8746 170.86C46.7346 170.72 46.6646 170.547 46.6646 170.34C46.6646 170.133 46.7346 169.96 46.8746 169.82C47.0146 169.68 47.1879 169.61 47.3946 169.61C47.5946 169.61 47.7646 169.68 47.9046 169.82C48.0446 169.96 48.1146 170.133 48.1146 170.34C48.1146 170.547 48.0446 170.72 47.9046 170.86C47.7646 171 47.5946 171.07 47.3946 171.07ZM49.1767 165.51C49.2167 164.89 49.4533 164.407 49.8867 164.06C50.3267 163.713 50.8867 163.54 51.5667 163.54C52.0333 163.54 52.4367 163.623 52.7767 163.79C53.1167 163.957 53.3733 164.183 53.5467 164.47C53.72 164.757 53.8067 165.08 53.8067 165.44C53.8067 165.853 53.6967 166.207 53.4767 166.5C53.2567 166.793 52.9933 166.99 52.6867 167.09V167.13C53.08 167.25 53.3867 167.47 53.6067 167.79C53.8267 168.103 53.9367 168.507 53.9367 169C53.9367 169.393 53.8467 169.743 53.6667 170.05C53.4867 170.357 53.22 170.6 52.8667 170.78C52.5133 170.953 52.09 171.04 51.5967 171.04C50.8767 171.04 50.2833 170.857 49.8167 170.49C49.3567 170.117 49.11 169.583 49.0767 168.89H50.1767C50.2033 169.243 50.34 169.533 50.5867 169.76C50.8333 169.98 51.1667 170.09 51.5867 170.09C51.9933 170.09 52.3067 169.98 52.5267 169.76C52.7467 169.533 52.8567 169.243 52.8567 168.89C52.8567 168.423 52.7067 168.093 52.4067 167.9C52.1133 167.7 51.66 167.6 51.0467 167.6H50.7867V166.66H51.0567C51.5967 166.653 52.0067 166.563 52.2867 166.39C52.5733 166.217 52.7167 165.943 52.7167 165.57C52.7167 165.25 52.6133 164.997 52.4067 164.81C52.2 164.617 51.9067 164.52 51.5267 164.52C51.1533 164.52 50.8633 164.617 50.6567 164.81C50.45 164.997 50.3267 165.23 50.2867 165.51H49.1767ZM65.2018 164.05V171H64.0618V166.24L61.9418 171H61.1518L59.0218 166.24V171H57.8818V164.05H59.1118L61.5518 169.5L63.9818 164.05H65.2018ZM67.8402 166.31C68.0335 166.043 68.2969 165.827 68.6302 165.66C68.9702 165.487 69.3469 165.4 69.7602 165.4C70.2469 165.4 70.6869 165.517 71.0802 165.75C71.4735 165.983 71.7835 166.317 72.0102 166.75C72.2369 167.177 72.3502 167.667 72.3502 168.22C72.3502 168.773 72.2369 169.27 72.0102 169.71C71.7835 170.143 71.4702 170.483 71.0702 170.73C70.6769 170.97 70.2402 171.09 69.7602 171.09C69.3335 171.09 68.9535 171.007 68.6202 170.84C68.2935 170.673 68.0335 170.46 67.8402 170.2V171H66.7002V163.6H67.8402V166.31ZM71.1902 168.22C71.1902 167.84 71.1102 167.513 70.9502 167.24C70.7969 166.96 70.5902 166.75 70.3302 166.61C70.0769 166.463 69.8035 166.39 69.5102 166.39C69.2235 166.39 68.9502 166.463 68.6902 166.61C68.4369 166.757 68.2302 166.97 68.0702 167.25C67.9169 167.53 67.8402 167.86 67.8402 168.24C67.8402 168.62 67.9169 168.953 68.0702 169.24C68.2302 169.52 68.4369 169.733 68.6902 169.88C68.9502 170.027 69.2235 170.1 69.5102 170.1C69.8035 170.1 70.0769 170.027 70.3302 169.88C70.5902 169.727 70.7969 169.507 70.9502 169.22C71.1102 168.933 71.1902 168.6 71.1902 168.22Z" fill="#7F7F7F" fill-opacity="0.5" style="mix-blend-mode:luminosity"/>
<path d="M36.7225 164.75V163.71H38.8025V171H37.6525V164.75H36.7225ZM44.2886 165.4C44.2152 165.093 44.0819 164.863 43.8886 164.71C43.6952 164.557 43.4252 164.48 43.0786 164.48C42.5519 164.48 42.1586 164.683 41.8986 165.09C41.6386 165.49 41.5019 166.157 41.4886 167.09C41.6619 166.797 41.9152 166.57 42.2486 166.41C42.5819 166.25 42.9419 166.17 43.3286 166.17C43.7686 166.17 44.1552 166.267 44.4886 166.46C44.8286 166.647 45.0919 166.92 45.2786 167.28C45.4719 167.64 45.5686 168.07 45.5686 168.57C45.5686 169.037 45.4752 169.453 45.2886 169.82C45.1086 170.187 44.8386 170.477 44.4786 170.69C44.1186 170.897 43.6852 171 43.1786 171C42.4919 171 41.9519 170.85 41.5586 170.55C41.1719 170.243 40.8986 169.813 40.7386 169.26C40.5852 168.707 40.5086 168.017 40.5086 167.19C40.5086 164.75 41.3686 163.53 43.0886 163.53C43.7552 163.53 44.2786 163.71 44.6586 164.07C45.0452 164.43 45.2719 164.873 45.3386 165.4H44.2886ZM43.0786 167.13C42.6719 167.13 42.3252 167.253 42.0386 167.5C41.7586 167.74 41.6186 168.09 41.6186 168.55C41.6186 169.01 41.7486 169.377 42.0086 169.65C42.2752 169.917 42.6452 170.05 43.1186 170.05C43.5386 170.05 43.8686 169.92 44.1086 169.66C44.3552 169.4 44.4786 169.053 44.4786 168.62C44.4786 168.167 44.3586 167.807 44.1186 167.54C43.8852 167.267 43.5386 167.13 43.0786 167.13ZM47.3946 171.07C47.1879 171.07 47.0146 171 46.8746 170.86C46.7346 170.72 46.6646 170.547 46.6646 170.34C46.6646 170.133 46.7346 169.96 46.8746 169.82C47.0146 169.68 47.1879 169.61 47.3946 169.61C47.5946 169.61 47.7646 169.68 47.9046 169.82C48.0446 169.96 48.1146 170.133 48.1146 170.34C48.1146 170.547 48.0446 170.72 47.9046 170.86C47.7646 171 47.5946 171.07 47.3946 171.07ZM49.1767 165.51C49.2167 164.89 49.4533 164.407 49.8867 164.06C50.3267 163.713 50.8867 163.54 51.5667 163.54C52.0333 163.54 52.4367 163.623 52.7767 163.79C53.1167 163.957 53.3733 164.183 53.5467 164.47C53.72 164.757 53.8067 165.08 53.8067 165.44C53.8067 165.853 53.6967 166.207 53.4767 166.5C53.2567 166.793 52.9933 166.99 52.6867 167.09V167.13C53.08 167.25 53.3867 167.47 53.6067 167.79C53.8267 168.103 53.9367 168.507 53.9367 169C53.9367 169.393 53.8467 169.743 53.6667 170.05C53.4867 170.357 53.22 170.6 52.8667 170.78C52.5133 170.953 52.09 171.04 51.5967 171.04C50.8767 171.04 50.2833 170.857 49.8167 170.49C49.3567 170.117 49.11 169.583 49.0767 168.89H50.1767C50.2033 169.243 50.34 169.533 50.5867 169.76C50.8333 169.98 51.1667 170.09 51.5867 170.09C51.9933 170.09 52.3067 169.98 52.5267 169.76C52.7467 169.533 52.8567 169.243 52.8567 168.89C52.8567 168.423 52.7067 168.093 52.4067 167.9C52.1133 167.7 51.66 167.6 51.0467 167.6H50.7867V166.66H51.0567C51.5967 166.653 52.0067 166.563 52.2867 166.39C52.5733 166.217 52.7167 165.943 52.7167 165.57C52.7167 165.25 52.6133 164.997 52.4067 164.81C52.2 164.617 51.9067 164.52 51.5267 164.52C51.1533 164.52 50.8633 164.617 50.6567 164.81C50.45 164.997 50.3267 165.23 50.2867 165.51H49.1767ZM65.2018 164.05V171H64.0618V166.24L61.9418 171H61.1518L59.0218 166.24V171H57.8818V164.05H59.1118L61.5518 169.5L63.9818 164.05H65.2018ZM67.8402 166.31C68.0335 166.043 68.2969 165.827 68.6302 165.66C68.9702 165.487 69.3469 165.4 69.7602 165.4C70.2469 165.4 70.6869 165.517 71.0802 165.75C71.4735 165.983 71.7835 166.317 72.0102 166.75C72.2369 167.177 72.3502 167.667 72.3502 168.22C72.3502 168.773 72.2369 169.27 72.0102 169.71C71.7835 170.143 71.4702 170.483 71.0702 170.73C70.6769 170.97 70.2402 171.09 69.7602 171.09C69.3335 171.09 68.9535 171.007 68.6202 170.84C68.2935 170.673 68.0335 170.46 67.8402 170.2V171H66.7002V163.6H67.8402V166.31ZM71.1902 168.22C71.1902 167.84 71.1102 167.513 70.9502 167.24C70.7969 166.96 70.5902 166.75 70.3302 166.61C70.0769 166.463 69.8035 166.39 69.5102 166.39C69.2235 166.39 68.9502 166.463 68.6902 166.61C68.4369 166.757 68.2302 166.97 68.0702 167.25C67.9169 167.53 67.8402 167.86 67.8402 168.24C67.8402 168.62 67.9169 168.953 68.0702 169.24C68.2302 169.52 68.4369 169.733 68.6902 169.88C68.9502 170.027 69.2235 170.1 69.5102 170.1C69.8035 170.1 70.0769 170.027 70.3302 169.88C70.5902 169.727 70.7969 169.507 70.9502 169.22C71.1102 168.933 71.1902 168.6 71.1902 168.22Z" fill="#3D3D3D" style="mix-blend-mode:overlay"/>
<path d="M100.741 164.03V168.44C100.741 169.06 100.891 169.52 101.191 169.82C101.498 170.12 101.921 170.27 102.461 170.27C102.994 170.27 103.411 170.12 103.711 169.82C104.018 169.52 104.171 169.06 104.171 168.44V164.03H105.081V168.43C105.081 169.01 104.964 169.5 104.731 169.9C104.498 170.293 104.181 170.587 103.781 170.78C103.388 170.973 102.944 171.07 102.451 171.07C101.958 171.07 101.511 170.973 101.111 170.78C100.718 170.587 100.404 170.293 100.171 169.9C99.9444 169.5 99.8311 169.01 99.8311 168.43V164.03H100.741ZM107.509 166.53C107.689 166.217 107.956 165.957 108.309 165.75C108.669 165.537 109.086 165.43 109.559 165.43C110.046 165.43 110.486 165.547 110.879 165.78C111.279 166.013 111.592 166.343 111.819 166.77C112.046 167.19 112.159 167.68 112.159 168.24C112.159 168.793 112.046 169.287 111.819 169.72C111.592 170.153 111.279 170.49 110.879 170.73C110.486 170.97 110.046 171.09 109.559 171.09C109.092 171.09 108.679 170.987 108.319 170.78C107.966 170.567 107.696 170.303 107.509 169.99V173.6H106.599V165.52H107.509V166.53ZM111.229 168.24C111.229 167.827 111.146 167.467 110.979 167.16C110.812 166.853 110.586 166.62 110.299 166.46C110.019 166.3 109.709 166.22 109.369 166.22C109.036 166.22 108.726 166.303 108.439 166.47C108.159 166.63 107.932 166.867 107.759 167.18C107.592 167.487 107.509 167.843 107.509 168.25C107.509 168.663 107.592 169.027 107.759 169.34C107.932 169.647 108.159 169.883 108.439 170.05C108.726 170.21 109.036 170.29 109.369 170.29C109.709 170.29 110.019 170.21 110.299 170.05C110.586 169.883 110.812 169.647 110.979 169.34C111.146 169.027 111.229 168.66 111.229 168.24ZM114.267 163.6V171H113.357V163.6H114.267ZM118.208 171.09C117.695 171.09 117.228 170.973 116.808 170.74C116.395 170.507 116.068 170.177 115.828 169.75C115.595 169.317 115.478 168.817 115.478 168.25C115.478 167.69 115.598 167.197 115.838 166.77C116.085 166.337 116.418 166.007 116.838 165.78C117.258 165.547 117.728 165.43 118.248 165.43C118.768 165.43 119.238 165.547 119.658 165.78C120.078 166.007 120.408 166.333 120.648 166.76C120.895 167.187 121.018 167.683 121.018 168.25C121.018 168.817 120.891 169.317 120.638 169.75C120.391 170.177 120.055 170.507 119.628 170.74C119.201 170.973 118.728 171.09 118.208 171.09ZM118.208 170.29C118.535 170.29 118.841 170.213 119.128 170.06C119.415 169.907 119.645 169.677 119.818 169.37C119.998 169.063 120.088 168.69 120.088 168.25C120.088 167.81 120.001 167.437 119.828 167.13C119.655 166.823 119.428 166.597 119.148 166.45C118.868 166.297 118.565 166.22 118.238 166.22C117.905 166.22 117.598 166.297 117.318 166.45C117.045 166.597 116.825 166.823 116.658 167.13C116.491 167.437 116.408 167.81 116.408 168.25C116.408 168.697 116.488 169.073 116.648 169.38C116.815 169.687 117.035 169.917 117.308 170.07C117.581 170.217 117.881 170.29 118.208 170.29ZM121.874 168.24C121.874 167.68 121.988 167.19 122.214 166.77C122.441 166.343 122.751 166.013 123.144 165.78C123.544 165.547 123.988 165.43 124.474 165.43C124.954 165.43 125.371 165.533 125.724 165.74C126.078 165.947 126.341 166.207 126.514 166.52V165.52H127.434V171H126.514V169.98C126.334 170.3 126.064 170.567 125.704 170.78C125.351 170.987 124.938 171.09 124.464 171.09C123.978 171.09 123.538 170.97 123.144 170.73C122.751 170.49 122.441 170.153 122.214 169.72C121.988 169.287 121.874 168.793 121.874 168.24ZM126.514 168.25C126.514 167.837 126.431 167.477 126.264 167.17C126.098 166.863 125.871 166.63 125.584 166.47C125.304 166.303 124.994 166.22 124.654 166.22C124.314 166.22 124.004 166.3 123.724 166.46C123.444 166.62 123.221 166.853 123.054 167.16C122.888 167.467 122.804 167.827 122.804 168.24C122.804 168.66 122.888 169.027 123.054 169.34C123.221 169.647 123.444 169.883 123.724 170.05C124.004 170.21 124.314 170.29 124.654 170.29C124.994 170.29 125.304 170.21 125.584 170.05C125.871 169.883 126.098 169.647 126.264 169.34C126.431 169.027 126.514 168.663 126.514 168.25ZM128.632 168.24C128.632 167.68 128.745 167.19 128.972 166.77C129.199 166.343 129.509 166.013 129.902 165.78C130.302 165.547 130.749 165.43 131.242 165.43C131.669 165.43 132.065 165.53 132.432 165.73C132.799 165.923 133.079 166.18 133.272 166.5V163.6H134.192V171H133.272V169.97C133.092 170.297 132.825 170.567 132.472 170.78C132.119 170.987 131.705 171.09 131.232 171.09C130.745 171.09 130.302 170.97 129.902 170.73C129.509 170.49 129.199 170.153 128.972 169.72C128.745 169.287 128.632 168.793 128.632 168.24ZM133.272 168.25C133.272 167.837 133.189 167.477 133.022 167.17C132.855 166.863 132.629 166.63 132.342 166.47C132.062 166.303 131.752 166.22 131.412 166.22C131.072 166.22 130.762 166.3 130.482 166.46C130.202 166.62 129.979 166.853 129.812 167.16C129.645 167.467 129.562 167.827 129.562 168.24C129.562 168.66 129.645 169.027 129.812 169.34C129.979 169.647 130.202 169.883 130.482 170.05C130.762 170.21 131.072 170.29 131.412 170.29C131.752 170.29 132.062 170.21 132.342 170.05C132.629 169.883 132.855 169.647 133.022 169.34C133.189 169.027 133.272 168.663 133.272 168.25ZM140.73 168.05C140.73 168.223 140.72 168.407 140.7 168.6H136.32C136.353 169.14 136.537 169.563 136.87 169.87C137.21 170.17 137.62 170.32 138.1 170.32C138.493 170.32 138.82 170.23 139.08 170.05C139.347 169.863 139.533 169.617 139.64 169.31H140.62C140.473 169.837 140.18 170.267 139.74 170.6C139.3 170.927 138.753 171.09 138.1 171.09C137.58 171.09 137.113 170.973 136.7 170.74C136.293 170.507 135.973 170.177 135.74 169.75C135.507 169.317 135.39 168.817 135.39 168.25C135.39 167.683 135.503 167.187 135.73 166.76C135.957 166.333 136.273 166.007 136.68 165.78C137.093 165.547 137.567 165.43 138.1 165.43C138.62 165.43 139.08 165.543 139.48 165.77C139.88 165.997 140.187 166.31 140.4 166.71C140.62 167.103 140.73 167.55 140.73 168.05ZM139.79 167.86C139.79 167.513 139.713 167.217 139.56 166.97C139.407 166.717 139.197 166.527 138.93 166.4C138.67 166.267 138.38 166.2 138.06 166.2C137.6 166.2 137.207 166.347 136.88 166.64C136.56 166.933 136.377 167.34 136.33 167.86H139.79ZM141.591 168.24C141.591 167.68 141.704 167.19 141.931 166.77C142.158 166.343 142.468 166.013 142.861 165.78C143.261 165.547 143.708 165.43 144.201 165.43C144.628 165.43 145.024 165.53 145.391 165.73C145.758 165.923 146.038 166.18 146.231 166.5V163.6H147.151V171H146.231V169.97C146.051 170.297 145.784 170.567 145.431 170.78C145.078 170.987 144.664 171.09 144.191 171.09C143.704 171.09 143.261 170.97 142.861 170.73C142.468 170.49 142.158 170.153 141.931 169.72C141.704 169.287 141.591 168.793 141.591 168.24ZM146.231 168.25C146.231 167.837 146.148 167.477 145.981 167.17C145.814 166.863 145.588 166.63 145.301 166.47C145.021 166.303 144.711 166.22 144.371 166.22C144.031 166.22 143.721 166.3 143.441 166.46C143.161 166.62 142.938 166.853 142.771 167.16C142.604 167.467 142.521 167.827 142.521 168.24C142.521 168.66 142.604 169.027 142.771 169.34C142.938 169.647 143.161 169.883 143.441 170.05C143.721 170.21 144.031 170.29 144.371 170.29C144.711 170.29 145.021 170.21 145.301 170.05C145.588 169.883 145.814 169.647 145.981 169.34C146.148 169.027 146.231 168.663 146.231 168.25Z" fill="#7F7F7F" fill-opacity="0.5" style="mix-blend-mode:luminosity"/>
<path d="M100.741 164.03V168.44C100.741 169.06 100.891 169.52 101.191 169.82C101.498 170.12 101.921 170.27 102.461 170.27C102.994 170.27 103.411 170.12 103.711 169.82C104.018 169.52 104.171 169.06 104.171 168.44V164.03H105.081V168.43C105.081 169.01 104.964 169.5 104.731 169.9C104.498 170.293 104.181 170.587 103.781 170.78C103.388 170.973 102.944 171.07 102.451 171.07C101.958 171.07 101.511 170.973 101.111 170.78C100.718 170.587 100.404 170.293 100.171 169.9C99.9444 169.5 99.8311 169.01 99.8311 168.43V164.03H100.741ZM107.509 166.53C107.689 166.217 107.956 165.957 108.309 165.75C108.669 165.537 109.086 165.43 109.559 165.43C110.046 165.43 110.486 165.547 110.879 165.78C111.279 166.013 111.592 166.343 111.819 166.77C112.046 167.19 112.159 167.68 112.159 168.24C112.159 168.793 112.046 169.287 111.819 169.72C111.592 170.153 111.279 170.49 110.879 170.73C110.486 170.97 110.046 171.09 109.559 171.09C109.092 171.09 108.679 170.987 108.319 170.78C107.966 170.567 107.696 170.303 107.509 169.99V173.6H106.599V165.52H107.509V166.53ZM111.229 168.24C111.229 167.827 111.146 167.467 110.979 167.16C110.812 166.853 110.586 166.62 110.299 166.46C110.019 166.3 109.709 166.22 109.369 166.22C109.036 166.22 108.726 166.303 108.439 166.47C108.159 166.63 107.932 166.867 107.759 167.18C107.592 167.487 107.509 167.843 107.509 168.25C107.509 168.663 107.592 169.027 107.759 169.34C107.932 169.647 108.159 169.883 108.439 170.05C108.726 170.21 109.036 170.29 109.369 170.29C109.709 170.29 110.019 170.21 110.299 170.05C110.586 169.883 110.812 169.647 110.979 169.34C111.146 169.027 111.229 168.66 111.229 168.24ZM114.267 163.6V171H113.357V163.6H114.267ZM118.208 171.09C117.695 171.09 117.228 170.973 116.808 170.74C116.395 170.507 116.068 170.177 115.828 169.75C115.595 169.317 115.478 168.817 115.478 168.25C115.478 167.69 115.598 167.197 115.838 166.77C116.085 166.337 116.418 166.007 116.838 165.78C117.258 165.547 117.728 165.43 118.248 165.43C118.768 165.43 119.238 165.547 119.658 165.78C120.078 166.007 120.408 166.333 120.648 166.76C120.895 167.187 121.018 167.683 121.018 168.25C121.018 168.817 120.891 169.317 120.638 169.75C120.391 170.177 120.055 170.507 119.628 170.74C119.201 170.973 118.728 171.09 118.208 171.09ZM118.208 170.29C118.535 170.29 118.841 170.213 119.128 170.06C119.415 169.907 119.645 169.677 119.818 169.37C119.998 169.063 120.088 168.69 120.088 168.25C120.088 167.81 120.001 167.437 119.828 167.13C119.655 166.823 119.428 166.597 119.148 166.45C118.868 166.297 118.565 166.22 118.238 166.22C117.905 166.22 117.598 166.297 117.318 166.45C117.045 166.597 116.825 166.823 116.658 167.13C116.491 167.437 116.408 167.81 116.408 168.25C116.408 168.697 116.488 169.073 116.648 169.38C116.815 169.687 117.035 169.917 117.308 170.07C117.581 170.217 117.881 170.29 118.208 170.29ZM121.874 168.24C121.874 167.68 121.988 167.19 122.214 166.77C122.441 166.343 122.751 166.013 123.144 165.78C123.544 165.547 123.988 165.43 124.474 165.43C124.954 165.43 125.371 165.533 125.724 165.74C126.078 165.947 126.341 166.207 126.514 166.52V165.52H127.434V171H126.514V169.98C126.334 170.3 126.064 170.567 125.704 170.78C125.351 170.987 124.938 171.09 124.464 171.09C123.978 171.09 123.538 170.97 123.144 170.73C122.751 170.49 122.441 170.153 122.214 169.72C121.988 169.287 121.874 168.793 121.874 168.24ZM126.514 168.25C126.514 167.837 126.431 167.477 126.264 167.17C126.098 166.863 125.871 166.63 125.584 166.47C125.304 166.303 124.994 166.22 124.654 166.22C124.314 166.22 124.004 166.3 123.724 166.46C123.444 166.62 123.221 166.853 123.054 167.16C122.888 167.467 122.804 167.827 122.804 168.24C122.804 168.66 122.888 169.027 123.054 169.34C123.221 169.647 123.444 169.883 123.724 170.05C124.004 170.21 124.314 170.29 124.654 170.29C124.994 170.29 125.304 170.21 125.584 170.05C125.871 169.883 126.098 169.647 126.264 169.34C126.431 169.027 126.514 168.663 126.514 168.25ZM128.632 168.24C128.632 167.68 128.745 167.19 128.972 166.77C129.199 166.343 129.509 166.013 129.902 165.78C130.302 165.547 130.749 165.43 131.242 165.43C131.669 165.43 132.065 165.53 132.432 165.73C132.799 165.923 133.079 166.18 133.272 166.5V163.6H134.192V171H133.272V169.97C133.092 170.297 132.825 170.567 132.472 170.78C132.119 170.987 131.705 171.09 131.232 171.09C130.745 171.09 130.302 170.97 129.902 170.73C129.509 170.49 129.199 170.153 128.972 169.72C128.745 169.287 128.632 168.793 128.632 168.24ZM133.272 168.25C133.272 167.837 133.189 167.477 133.022 167.17C132.855 166.863 132.629 166.63 132.342 166.47C132.062 166.303 131.752 166.22 131.412 166.22C131.072 166.22 130.762 166.3 130.482 166.46C130.202 166.62 129.979 166.853 129.812 167.16C129.645 167.467 129.562 167.827 129.562 168.24C129.562 168.66 129.645 169.027 129.812 169.34C129.979 169.647 130.202 169.883 130.482 170.05C130.762 170.21 131.072 170.29 131.412 170.29C131.752 170.29 132.062 170.21 132.342 170.05C132.629 169.883 132.855 169.647 133.022 169.34C133.189 169.027 133.272 168.663 133.272 168.25ZM140.73 168.05C140.73 168.223 140.72 168.407 140.7 168.6H136.32C136.353 169.14 136.537 169.563 136.87 169.87C137.21 170.17 137.62 170.32 138.1 170.32C138.493 170.32 138.82 170.23 139.08 170.05C139.347 169.863 139.533 169.617 139.64 169.31H140.62C140.473 169.837 140.18 170.267 139.74 170.6C139.3 170.927 138.753 171.09 138.1 171.09C137.58 171.09 137.113 170.973 136.7 170.74C136.293 170.507 135.973 170.177 135.74 169.75C135.507 169.317 135.39 168.817 135.39 168.25C135.39 167.683 135.503 167.187 135.73 166.76C135.957 166.333 136.273 166.007 136.68 165.78C137.093 165.547 137.567 165.43 138.1 165.43C138.62 165.43 139.08 165.543 139.48 165.77C139.88 165.997 140.187 166.31 140.4 166.71C140.62 167.103 140.73 167.55 140.73 168.05ZM139.79 167.86C139.79 167.513 139.713 167.217 139.56 166.97C139.407 166.717 139.197 166.527 138.93 166.4C138.67 166.267 138.38 166.2 138.06 166.2C137.6 166.2 137.207 166.347 136.88 166.64C136.56 166.933 136.377 167.34 136.33 167.86H139.79ZM141.591 168.24C141.591 167.68 141.704 167.19 141.931 166.77C142.158 166.343 142.468 166.013 142.861 165.78C143.261 165.547 143.708 165.43 144.201 165.43C144.628 165.43 145.024 165.53 145.391 165.73C145.758 165.923 146.038 166.18 146.231 166.5V163.6H147.151V171H146.231V169.97C146.051 170.297 145.784 170.567 145.431 170.78C145.078 170.987 144.664 171.09 144.191 171.09C143.704 171.09 143.261 170.97 142.861 170.73C142.468 170.49 142.158 170.153 141.931 169.72C141.704 169.287 141.591 168.793 141.591 168.24ZM146.231 168.25C146.231 167.837 146.148 167.477 145.981 167.17C145.814 166.863 145.588 166.63 145.301 166.47C145.021 166.303 144.711 166.22 144.371 166.22C144.031 166.22 143.721 166.3 143.441 166.46C143.161 166.62 142.938 166.853 142.771 167.16C142.604 167.467 142.521 167.827 142.521 168.24C142.521 168.66 142.604 169.027 142.771 169.34C142.938 169.647 143.161 169.883 143.441 170.05C143.721 170.21 144.031 170.29 144.371 170.29C144.711 170.29 145.021 170.21 145.301 170.05C145.588 169.883 145.814 169.647 145.981 169.34C146.148 169.027 146.231 168.663 146.231 168.25Z" fill="#3D3D3D" style="mix-blend-mode:overlay"/>
<g clip-path="url(#clip0_1639_12382)">
<rect x="322" y="147" width="24" height="24" rx="12" fill="url(#paint3_linear_1639_12382)" fill-opacity="0.4"/>
<path d="M332.495 162.455C332.383 162.567 332.223 162.661 332.083 162.661C331.942 162.661 331.783 162.563 331.666 162.45L329.041 159.825L329.875 158.991L332.088 161.203L337.938 155.311L338.758 156.159L332.495 162.455Z" fill="#008000"/>
</g>
<rect x="322.5" y="147.5" width="23" height="23" rx="11.5" stroke="#F0F0F0"/>
<rect x="1" y="1" width="348" height="130" rx="15" fill="url(#paint4_linear_1639_12382)" fill-opacity="0.4"/>
<rect x="1" y="1" width="348" height="130" rx="15" stroke="url(#paint5_linear_1639_12382)" stroke-width="2"/>
<circle cx="161" cy="66" r="29.5" stroke="white"/>
<circle cx="161" cy="66" r="59.5" stroke="white"/>
<circle cx="161.5" cy="66.5" r="42" stroke="white"/>
<path d="M161.37 51.9245C161.37 52.8673 161.37 53.3387 161.663 53.6316C161.956 53.9245 162.428 53.9245 163.37 53.9245H182.839C184.811 53.9245 185.797 53.9245 186.058 53.323C186.319 52.7215 185.646 52.0009 184.301 50.5596L164.832 29.7078C163.369 28.1402 162.637 27.3564 162.004 27.6061C161.37 27.8557 161.37 28.9281 161.37 31.0727V51.9245Z" fill="#CFCFCF"/>
<path d="M163.189 30.7546C163.189 28.5455 161.398 26.7546 159.189 26.7546H137C134.791 26.7546 133 28.5455 133 30.7546V95.9622C133 98.1713 134.791 99.9622 137 99.9622H183.889C186.098 99.9622 187.889 98.1713 187.889 95.9622V57.8314C187.889 55.6223 186.098 53.8314 183.889 53.8314H167.189C164.98 53.8314 163.189 52.0405 163.189 49.8314V30.7546Z" fill="url(#paint6_linear_1639_12382)"/>
<path d="M141.233 77.5724C141.233 76.183 142.36 75.0567 143.749 75.0567H177.14C178.529 75.0567 179.655 76.183 179.655 77.5724C179.655 78.9618 178.529 80.0881 177.14 80.0881H143.749C142.36 80.0881 141.233 78.9618 141.233 77.5724ZM141.233 88.6416C141.233 87.2522 142.36 86.1258 143.749 86.1258H177.14C178.529 86.1258 179.655 87.2522 179.655 88.6416C179.655 90.031 178.529 91.1573 177.14 91.1573H143.749C142.36 91.1573 141.233 90.031 141.233 88.6416ZM141.233 66.5032C141.233 65.1138 142.36 63.9875 143.749 63.9875H177.14C178.529 63.9875 179.655 65.1138 179.655 66.5032C179.655 67.8926 178.529 69.0189 177.14 69.0189H143.749C142.36 69.0189 141.233 67.8926 141.233 66.5032ZM141.233 55.434C141.233 54.0446 142.36 52.9183 143.749 52.9183H177.14C178.529 52.9183 179.655 54.0446 179.655 55.434C179.655 56.8234 178.529 57.9497 177.14 57.9497H143.749C142.36 57.9497 141.233 56.8234 141.233 55.434ZM141.233 44.3648C141.233 42.9754 142.36 41.8491 143.749 41.8491H152.44C153.829 41.8491 154.955 42.9754 154.955 44.3648C154.955 45.7542 153.829 46.8806 152.44 46.8806H143.749C142.36 46.8806 141.233 45.7542 141.233 44.3648Z" fill="url(#paint7_linear_1639_12382)"/>
<path d="M212.269 83.3586H197.175C196.374 83.3586 195.606 83.6767 195.04 84.2428C194.474 84.809 194.156 85.5769 194.156 86.3775V101.472C194.156 102.273 194.474 103.04 195.04 103.607C195.606 104.173 196.374 104.491 197.175 104.491H212.269C213.07 104.491 213.838 104.173 214.404 103.607C214.97 103.04 215.288 102.273 215.288 101.472V86.3775C215.288 85.5769 214.97 84.809 214.404 84.2428C213.838 83.6767 213.07 83.3586 212.269 83.3586ZM201.924 90.3722L204.189 88.1081C204.33 87.9666 204.522 87.8871 204.722 87.8871C204.922 87.8871 205.114 87.9666 205.256 88.1081L207.52 90.3722C207.592 90.4418 207.649 90.5251 207.689 90.6172C207.729 90.7093 207.749 90.8083 207.75 90.9085C207.751 91.0087 207.732 91.1081 207.694 91.2009C207.656 91.2936 207.6 91.3779 207.529 91.4488C207.458 91.5196 207.374 91.5757 207.281 91.6136C207.189 91.6516 207.089 91.6706 206.989 91.6698C206.889 91.6689 206.79 91.6481 206.698 91.6085C206.606 91.569 206.522 91.5115 206.453 91.4394L205.477 90.4635V95.4341C205.477 95.6343 205.397 95.8262 205.256 95.9678C205.114 96.1093 204.922 96.1888 204.722 96.1888C204.522 96.1888 204.33 96.1093 204.188 95.9678C204.047 95.8262 203.967 95.6343 203.967 95.4341V90.4635L202.992 91.4394C202.849 91.5769 202.659 91.6529 202.461 91.6512C202.263 91.6495 202.074 91.5701 201.934 91.4302C201.794 91.2903 201.714 91.101 201.713 90.9031C201.711 90.7052 201.787 90.5146 201.924 90.3722ZM210.76 99.2077C210.76 99.4079 210.68 99.5998 210.539 99.7414C210.397 99.8829 210.205 99.9624 210.005 99.9624H199.439C199.239 99.9624 199.047 99.8829 198.905 99.7414C198.764 99.5998 198.684 99.4079 198.684 99.2077V96.9435C198.684 96.7434 198.764 96.5514 198.905 96.4099C199.047 96.2683 199.239 96.1888 199.439 96.1888C199.639 96.1888 199.831 96.2683 199.973 96.4099C200.114 96.5514 200.194 96.7434 200.194 96.9435V98.453H209.25V96.9435C209.25 96.7434 209.33 96.5514 209.471 96.4099C209.613 96.2683 209.805 96.1888 210.005 96.1888C210.205 96.1888 210.397 96.2683 210.539 96.4099C210.68 96.5514 210.76 96.7434 210.76 96.9435V99.2077Z" fill="url(#paint8_linear_1639_12382)"/>
<defs>
<linearGradient id="paint0_linear_1639_12382" x1="16" y1="143" x2="16" y2="175" gradientUnits="userSpaceOnUse">
<stop stop-color="#F9F9F9"/>
<stop offset="0.956667" stop-color="#FFFBFB"/>
</linearGradient>
<linearGradient id="paint1_linear_1639_12382" x1="26" y1="147.45" x2="2.59163" y2="148.966" gradientUnits="userSpaceOnUse">
<stop stop-color="#F0F0F0" stop-opacity="0.8"/>
<stop offset="1" stop-color="#8A8A8A" stop-opacity="0"/>
</linearGradient>
<linearGradient id="paint2_linear_1639_12382" x1="16" y1="152.174" x2="16" y2="167.602" gradientUnits="userSpaceOnUse">
<stop stop-color="#F9F9F9"/>
<stop offset="0.956667" stop-color="#F0F0F0"/>
</linearGradient>
<linearGradient id="paint3_linear_1639_12382" x1="322" y1="147" x2="327.117" y2="173.701" gradientUnits="userSpaceOnUse">
<stop stop-color="white"/>
<stop offset="1" stop-color="#EEEDED" stop-opacity="0.5"/>
</linearGradient>
<linearGradient id="paint4_linear_1639_12382" x1="0" y1="0" x2="10.946" y2="151.46" gradientUnits="userSpaceOnUse">
<stop stop-color="white"/>
<stop offset="1" stop-color="#EEEDED" stop-opacity="0.5"/>
</linearGradient>
<linearGradient id="paint5_linear_1639_12382" x1="338.558" y1="4.00001" x2="55.0245" y2="193.669" gradientUnits="userSpaceOnUse">
<stop stop-color="#F0F0F0" stop-opacity="0.5"/>
<stop offset="1" stop-color="#8A8A8A" stop-opacity="0.1"/>
</linearGradient>
<linearGradient id="paint6_linear_1639_12382" x1="187.889" y1="26.7546" x2="123.576" y2="30.3292" gradientUnits="userSpaceOnUse">
<stop stop-color="#F0F0F0" stop-opacity="0.8"/>
<stop offset="1" stop-color="#8A8A8A" stop-opacity="0"/>
</linearGradient>
<linearGradient id="paint7_linear_1639_12382" x1="160.444" y1="41.8491" x2="160.444" y2="91.1573" gradientUnits="userSpaceOnUse">
<stop stop-color="#F9F9F9"/>
<stop offset="0.956667" stop-color="#F0F0F0"/>
</linearGradient>
<linearGradient id="paint8_linear_1639_12382" x1="198.058" y1="105.468" x2="211.386" y2="82.3813" gradientUnits="userSpaceOnUse">
<stop stop-color="#4C46C8"/>
<stop offset="1" stop-color="#87BFFF"/>
</linearGradient>
<clipPath id="clip0_1639_12382">
<rect x="322" y="147" width="24" height="24" rx="12" fill="white"/>
</clipPath>
</defs>
</svg>
